<svg preserveAspectRatio="none" width="100%" height="100%" overflow="visible" style="display: block;" viewBox="0 0 73.5299 24.0014" fill="none" xmlns="http://www.w3.org/2000/svg">
<g id="Vector">
<path d="M9.05582 0H9.70969C11.9797 0.0493486 14.2128 0.962297 15.8166 2.57846C15.2244 3.18298 14.6199 3.76283 14.04 4.36735C13.1394 3.5531 12.0538 2.9239 10.8694 2.70183C9.11751 2.33172 7.22993 2.66482 5.76181 3.66413C4.15798 4.71279 3.07231 6.48934 2.8379 8.38925C2.57882 10.2645 3.10932 12.2384 4.3307 13.6942C5.50273 15.113 7.29161 16.0013 9.14218 16.063C10.8694 16.1617 12.6706 15.6312 13.929 14.4221C14.916 13.5709 15.3724 12.2755 15.5205 11.0171C13.4725 11.0171 11.4246 11.0294 9.37659 11.0171V8.47561H18.0003C18.4444 11.2021 17.8029 14.2741 15.7302 16.2233C14.3485 17.6051 12.4362 18.4193 10.4869 18.5797C8.59935 18.7648 6.65008 18.407 4.97223 17.4941C2.96127 16.4207 1.35745 14.6072 0.567868 12.4728C-0.172361 10.5112 -0.184698 8.29056 0.506182 6.31662C1.13538 4.51539 2.34442 2.9239 3.8989 1.81356C5.39169 0.715554 7.20525 0.111034 9.05582 0Z" fill="var(--fill-0, white)"/>
<path d="M58.5278 0.641532H61.1679V18.259C60.292 18.259 59.4037 18.2713 58.5278 18.2466C58.5401 12.3865 58.5278 6.51401 58.5278 0.641532Z" fill="var(--fill-0, white)"/>
<path d="M23.8728 6.74842C25.5013 6.43999 27.2655 6.78543 28.6102 7.76007C29.8316 8.62367 30.6829 9.98075 30.942 11.4612C31.2751 13.1761 30.8556 15.0513 29.7453 16.4084C28.5485 17.9259 26.5869 18.7401 24.6747 18.6167C22.9228 18.518 21.2203 17.6421 20.1839 16.211C19.0119 14.6318 18.7282 12.4605 19.3697 10.6099C20.0112 8.62366 21.8248 7.1062 23.8728 6.74842ZM24.2429 9.09248C23.5767 9.2652 22.9598 9.64765 22.5157 10.1905C21.319 11.6216 21.393 13.9533 22.7131 15.2857C23.4656 16.0506 24.6006 16.4084 25.6493 16.1987C26.6239 16.0259 27.4752 15.3721 27.944 14.5085C28.7583 13.0404 28.5239 11.0171 27.2778 9.86972C26.4759 9.12949 25.3039 8.82106 24.2429 9.09248Z" fill="var(--fill-0, white)"/>
<path d="M36.9501 6.74842C38.813 6.39064 40.8486 6.9088 42.2427 8.21654C44.5128 10.2522 44.7595 14.0643 42.8226 16.4084C41.6506 17.8888 39.7506 18.7031 37.8754 18.6167C36.0865 18.5674 34.3223 17.6791 33.2613 16.211C32.0646 14.5948 31.8055 12.3741 32.4841 10.4866C33.1626 8.56198 34.9392 7.09386 36.9501 6.74842ZM37.3202 9.09247C36.654 9.26519 36.0372 9.64764 35.593 10.1781C34.4087 11.5846 34.458 13.8793 35.7287 15.224C36.4813 16.0259 37.6533 16.4207 38.739 16.1986C39.7013 16.0136 40.5649 15.3721 41.0337 14.5085C41.8356 13.028 41.6012 11.0047 40.3428 9.85737C39.5409 9.11715 38.3689 8.82105 37.3202 9.09247Z" fill="var(--fill-0, white)"/>
<path d="M48.0412 7.46398C49.46 6.5757 51.3476 6.32896 52.8774 7.09386C53.3585 7.30359 53.7533 7.66137 54.1358 8.01915C54.1481 7.68604 54.1358 7.3406 54.1481 6.99516C54.9747 7.0075 55.8013 6.99516 56.6402 7.0075V17.8889C56.6279 19.5297 56.2084 21.2692 55.0241 22.4659C53.7287 23.786 51.7424 24.1931 49.9535 23.9217C48.0412 23.638 46.3757 22.2439 45.6355 20.4797C46.3757 20.1219 47.1529 19.8381 47.9179 19.505C48.3497 20.5167 49.2256 21.3803 50.3236 21.5777C51.4216 21.7751 52.6923 21.5036 53.4079 20.5907C54.1728 19.6531 54.1728 18.37 54.1358 17.2227C53.5683 17.7778 52.9144 18.2713 52.1248 18.4564C50.41 18.9375 48.5224 18.3453 47.2023 17.1856C45.8699 16.026 45.0803 14.2371 45.1543 12.4605C45.1913 10.4496 46.3264 8.51263 48.0412 7.46398ZM50.595 9.04313C49.8425 9.1665 49.1392 9.58596 48.6581 10.1658C47.4984 11.5476 47.4984 13.7559 48.6704 15.113C49.3366 15.9149 50.41 16.3591 51.4463 16.248C52.4209 16.1493 53.3215 15.5325 53.8027 14.6812C54.6169 13.2378 54.4812 11.2762 53.3832 10.0178C52.7047 9.24052 51.619 8.85807 50.595 9.04313Z" fill="var(--fill-0, white)"/>
<path d="M64.3386 8.09318C65.8191 6.71142 68.1015 6.24261 70.0014 6.9705C71.8026 7.64905 72.95 9.36391 73.5299 11.1281C70.8527 12.2385 68.1878 13.3365 65.5107 14.4468C65.8808 15.15 66.4483 15.7916 67.2132 16.0506C68.2865 16.4331 69.5696 16.2974 70.4702 15.5818C70.828 15.3104 71.1118 14.9526 71.3832 14.6072C72.0617 15.0637 72.7403 15.5078 73.4188 15.9643C72.4565 17.4077 70.8403 18.4194 69.1008 18.5797C67.1762 18.8142 65.1282 18.0739 63.8821 16.5688C61.8342 14.2001 62.0316 10.2275 64.3386 8.09318ZM65.6587 10.3756C65.2392 10.9801 65.0665 11.7203 65.0788 12.4482C66.8678 11.708 68.6566 10.9677 70.4455 10.2152C70.1495 9.52429 69.4339 9.10483 68.706 8.99379C67.534 8.78406 66.3126 9.41326 65.6587 10.3756Z" fill="var(--fill-0, white)"/>
</g>
</svg>
