<svg width="117" height="29" viewBox="0 0 117 29" fill="none" xmlns="http://www.w3.org/2000/svg">
<g id="Desktop">
<g id="Main">
<g id="Section - Social proof logos" clip-path="url(#clip0_0_1)">
<g id="Container">
<g id="Harvard_University_idAqcZXice_0 1" clip-path="url(#clip1_0_1)">
<g id="Group">
<g id="Group_2">
<path id="Vector" d="M47.2505 20.0436C47.2505 19.7966 47.0941 19.6113 46.7499 19.5495V19.3951C46.9376 19.3951 47.5322 19.426 47.7199 19.426C47.8764 19.426 48.4396 19.3951 48.6274 19.3951V19.5495C48.3145 19.6113 48.158 19.7966 48.158 20.0436V23.132C48.158 24.1203 48.69 24.6762 49.8478 24.6762C50.8178 24.6762 51.6001 24.2439 51.6001 23.2247V20.0128C51.6001 19.7966 51.4436 19.6113 51.0994 19.5186V19.3642C51.2246 19.3642 51.7253 19.3951 51.913 19.3951C52.0695 19.3951 52.6014 19.3642 52.7266 19.3642V19.5186C52.3824 19.6113 52.2259 19.7657 52.2259 20.0128V23.0394C52.2259 24.3983 51.4436 25.1704 49.7226 25.1704C48.1267 25.1704 47.2818 24.46 47.2818 23.1938V20.0436H47.2505Z" fill="white"/>
<path id="Vector_2" d="M54.1348 24.9233C54.5103 24.8615 54.6667 24.6762 54.6667 24.4292V20.1672C54.6667 19.7966 54.479 19.6422 54.1348 19.5495V19.3951C54.3225 19.3951 54.6354 19.426 54.7919 19.426C54.9484 19.426 55.1674 19.426 55.3239 19.3951L59.0789 23.7497V20.0128C59.0789 19.7966 58.9224 19.6113 58.5782 19.5186V19.3642C58.7034 19.3642 59.204 19.3951 59.3605 19.3951C59.517 19.3951 60.0176 19.3642 60.1741 19.3642V19.5186C59.8299 19.6113 59.6421 19.7657 59.6421 20.0128V25.1395H59.4231C59.2666 25.1086 59.0163 24.9542 58.6095 24.5218L55.23 20.6613V24.4292C55.23 24.6453 55.3551 24.8306 55.7306 24.9233V25.0777C55.6055 25.0777 55.1048 25.0468 54.9484 25.0468C54.7919 25.0468 54.2912 25.0777 54.1661 25.0777V24.9233H54.1348Z" fill="white"/>
<path id="Vector_3" d="M83.8307 23.7497H83.9871C84.081 24.0586 84.2688 24.3674 84.5191 24.5218C84.8007 24.7071 85.2075 24.7998 85.5517 24.7998C86.3027 24.7998 86.8034 24.4292 86.8034 23.8424C86.8034 23.2247 86.1776 22.9158 85.4579 22.5452C84.8946 22.2673 83.8307 21.8349 83.8307 20.8157C83.8307 19.8583 84.5817 19.2715 85.7395 19.2715C86.5218 19.2715 86.8973 19.4568 87.398 19.426V20.5996H87.2415C87.0224 19.9201 86.3966 19.673 85.7082 19.673C84.9259 19.673 84.6443 20.1054 84.6443 20.5378C84.6443 21.1555 85.2701 21.4952 85.9898 21.804C86.8034 22.1437 87.6483 22.607 87.6483 23.5953C87.6483 24.5218 86.8973 25.2013 85.5517 25.2013C84.7382 25.2013 84.2688 24.9851 83.8307 24.9233V23.7497Z" fill="white"/>
<path id="Vector_4" d="M100.009 22.7305L98.4753 20.2907C98.2249 19.8583 98.0059 19.6422 97.7242 19.5186V19.3642C97.9433 19.3642 98.5065 19.3951 98.663 19.3951C98.8195 19.3951 99.414 19.3642 99.633 19.3642V19.5186C99.4453 19.5495 99.3514 19.6422 99.3514 19.7966C99.3514 19.9201 99.4453 20.1054 99.5392 20.2289C99.633 20.3834 100.666 22.082 100.666 22.082L101.761 20.2289C101.886 20.0436 101.949 19.8583 101.949 19.7348C101.949 19.6113 101.855 19.5495 101.698 19.5186V19.3642C101.886 19.3642 102.262 19.3951 102.387 19.3951C102.512 19.3951 102.95 19.3642 103.138 19.3642V19.5186C102.731 19.673 102.449 20.0436 102.199 20.476L100.822 22.7614M100.885 22.4835V24.4292C100.885 24.6145 101.041 24.8615 101.354 24.9233V25.0777C101.166 25.0777 100.541 25.0468 100.384 25.0468C100.228 25.0468 99.6643 25.0777 99.4453 25.0777V24.9233C99.7895 24.8615 99.946 24.6145 99.946 24.4292V22.5761" fill="white"/>
<path id="Vector_5" d="M71.533 19.3642H75.1316C75.2567 19.3642 75.4445 19.3642 75.5384 19.3024H75.6948L75.6635 20.4451H75.5071C75.3819 20.0745 75.2254 19.7966 74.537 19.7966H72.9724V21.804H74.1615C74.3493 21.804 74.537 21.804 74.6309 21.7731C74.9125 21.7114 75.0064 21.557 75.069 21.3408H75.2254C75.2254 21.5261 75.2254 21.8967 75.2254 22.0202C75.2254 22.1438 75.2254 22.5452 75.2254 22.7305H75.1003C75.0377 22.5144 74.9125 22.3291 74.6622 22.2673C74.5683 22.2364 74.3493 22.2364 74.1928 22.2364H73.0037V24.5836H74.6935C75.4445 24.5836 75.6635 24.2747 75.82 23.8424L75.9765 23.8733L75.82 25.0468C75.2567 24.9851 74.9438 24.9851 74.318 24.9851H72.5344C72.3466 24.9851 71.7208 25.016 71.533 25.016V24.8615C71.8459 24.7998 72.0337 24.6453 72.0337 24.3365V20.0436C72.0337 19.7657 71.8772 19.6113 71.533 19.5495V19.3642Z" fill="white"/>
<path id="Vector_6" d="M62.3645 20.0745C62.3645 19.7966 62.1767 19.6113 61.8325 19.5495V19.3951C62.0203 19.3951 62.6461 19.426 62.8339 19.426C62.9903 19.426 63.6161 19.3951 63.8352 19.3951V19.5495C63.491 19.6113 63.3032 19.7657 63.3032 20.0745V24.3983C63.3032 24.6762 63.491 24.8615 63.8352 24.9233V25.0777C63.6474 25.0777 63.0216 25.0468 62.8339 25.0468C62.6774 25.0468 62.0203 25.0777 61.8325 25.0777V24.9233C62.1767 24.8615 62.3645 24.7071 62.3645 24.3983V20.0745Z" fill="white"/>
<path id="Vector_7" d="M89.6197 20.0745C89.6197 19.7966 89.4319 19.6113 89.0877 19.5495V19.3951C89.2755 19.3951 89.9013 19.426 90.089 19.426C90.2455 19.426 90.8713 19.3951 91.0904 19.3951V19.5495C90.7462 19.6113 90.5584 19.7657 90.5584 20.0745V24.3983C90.5584 24.6762 90.7462 24.8615 91.0904 24.9233V25.0777C90.9026 25.0777 90.2768 25.0468 90.089 25.0468C89.9326 25.0468 89.2755 25.0777 89.0877 25.0777V24.9233C89.4319 24.8615 89.6197 24.7071 89.6197 24.3983V20.0745Z" fill="white"/>
<path id="Vector_8" d="M94.5951 19.3951C92.6237 19.3951 92.3108 19.3642 91.904 19.3333V20.5069H92.0605C92.2169 19.9819 92.4985 19.8583 92.874 19.8583H94.0944V24.3983C94.0944 24.7071 93.938 24.8615 93.5625 24.9233V25.0777C93.7502 25.0777 94.4073 25.0468 94.5638 25.0468C94.7515 25.0468 95.3461 25.0777 95.5651 25.0777V24.9233C95.2209 24.8615 95.0332 24.6762 95.0332 24.3983V19.8892H96.2535C96.6603 19.8892 96.942 20.0128 97.0671 20.5378H97.2236V19.3642C96.8794 19.3642 96.5665 19.3951 94.5951 19.3951Z" fill="white"/>
<path id="Vector_9" d="M78.8866 24.3983C78.8866 24.6762 79.0743 24.8615 79.4185 24.9233V25.0777C79.2308 25.0777 78.6049 25.0468 78.4172 25.0468C78.2607 25.0468 77.6349 25.0777 77.4471 25.0777V24.9233C77.7601 24.8615 77.9478 24.7071 77.9478 24.3983V20.0128C77.9478 19.7348 77.7914 19.5804 77.4471 19.5186V19.3642C77.6349 19.3642 78.2607 19.3951 78.4172 19.3951C78.6988 19.3951 79.5124 19.3333 79.8253 19.3333C81.2022 19.3333 81.9845 19.8892 81.9845 20.8466C81.9845 21.6187 81.4212 22.1129 80.545 22.3291C80.545 22.3291 80.7328 22.4526 80.9518 22.6688C81.2022 22.9467 81.8593 23.8733 82.1409 24.213C82.4225 24.5527 82.7668 24.8924 83.1423 24.9233V25.0468C82.9545 25.0777 82.6729 25.1086 82.4538 25.1086C81.9845 25.1086 81.609 24.9542 81.2335 24.5218C80.9205 24.1512 80.3886 23.3482 80.0757 22.9776C79.8879 22.7305 79.6376 22.5144 79.1995 22.4526C79.1056 22.4526 79.043 22.4217 78.9179 22.4217V24.3983H78.8866ZM78.8866 22.082C79.0743 22.1129 79.3559 22.1129 79.6063 22.1129C80.7015 22.1129 81.0144 21.4952 81.0144 20.9702C81.0144 20.1981 80.4824 19.7348 79.5437 19.7348C79.3559 19.7348 79.0743 19.7657 78.8553 19.7966V22.082H78.8866Z" fill="white"/>
<path id="Vector_10" d="M65.2121 20.0745C65.0869 19.7966 64.8991 19.6113 64.5549 19.5186V19.3642C64.774 19.3642 65.4624 19.3951 65.6189 19.3951C65.7753 19.3951 66.3699 19.3642 66.5889 19.3642V19.5186C66.4011 19.5495 66.1821 19.6422 66.1821 19.8583C66.1821 19.9819 66.276 20.1672 66.4324 20.5378L67.9344 23.8732L69.3426 20.5378C69.4677 20.2598 69.5303 20.0436 69.5303 19.8892C69.5303 19.7039 69.3739 19.5804 69.1235 19.5495V19.3951C69.3113 19.3951 69.7807 19.426 69.9058 19.426C70.031 19.426 70.563 19.3951 70.782 19.3951V19.5495C70.4378 19.6422 70.2187 19.8275 70.031 20.2907L67.9657 25.1086H67.4964L65.2121 20.0745Z" fill="white"/>
<path id="Vector_11" d="M70.5004 4.87964C70.2501 4.35462 69.9059 3.98401 69.28 3.82959V3.52075C69.6555 3.52075 70.9385 3.55164 71.2514 3.55164C71.533 3.55164 72.7534 3.52075 73.1602 3.52075V3.82959C72.816 3.89136 72.4092 4.07666 72.4092 4.44727C72.4092 4.69434 72.5657 5.03406 72.8786 5.71351L75.6948 12.0447L78.3546 5.71351C78.5737 5.18848 78.7302 4.81788 78.7302 4.50904C78.7302 4.16931 78.4172 3.95313 77.9791 3.86048V3.55164C78.3234 3.55164 79.1995 3.58252 79.4499 3.58252C79.7002 3.58252 80.7328 3.55164 81.1083 3.55164V3.82959C80.4512 4.01489 80.0444 4.3855 79.6689 5.25025L75.7261 14.3919H74.85L70.5004 4.87964Z" fill="white"/>
<path id="Vector_12" d="M32.5121 14.0213C33.0128 13.8977 33.3883 13.6816 33.3883 13.0948V4.72522C33.3883 4.16931 33.0441 3.95313 32.5121 3.79871V3.48987C32.7938 3.48987 33.9516 3.52075 34.2332 3.52075C34.5461 3.52075 35.7665 3.48987 36.0481 3.48987V3.79871C35.5474 3.92224 35.1407 4.13843 35.1407 4.72522V8.21511H41.4616V4.72522C41.4616 4.13843 41.1174 3.92224 40.5854 3.79871V3.48987C40.8671 3.48987 42.0561 3.52075 42.3691 3.52075C42.6507 3.52075 43.8398 3.48987 44.0901 3.48987V3.79871C43.5894 3.92224 43.1826 4.13843 43.1826 4.72522V13.0948C43.1826 13.6507 43.5269 13.8669 44.0901 14.0213V14.2992C43.8398 14.2992 42.6507 14.2684 42.3691 14.2684C42.0561 14.2684 40.8671 14.2992 40.5854 14.2992V14.0213C41.0861 13.8977 41.4616 13.6816 41.4616 13.0948V9.14163H35.1407V13.0948C35.1407 13.6816 35.4849 13.8669 36.0481 14.0213V14.2992C35.7665 14.2992 34.5774 14.2684 34.2332 14.2684C33.9516 14.2684 32.7938 14.2992 32.5121 14.2992V14.0213Z" fill="white"/>
<path id="Vector_13" d="M105.672 14.0213C106.329 13.8977 106.705 13.6507 106.705 13.0639V4.72523C106.705 4.13843 106.361 3.92224 105.704 3.79871V3.48987C106.079 3.48987 107.268 3.52075 107.581 3.52075C108.113 3.52075 109.584 3.39722 110.742 3.39722C114.622 3.39722 117 5.52821 117 8.8019C117 11.9829 114.528 14.3301 110.523 14.3301C109.365 14.3301 107.988 14.2375 107.456 14.2375C107.143 14.2375 106.017 14.2684 105.672 14.2684V14.0213ZM108.457 13.4654C108.864 13.5271 109.584 13.5889 110.178 13.5889C113.433 13.5889 115.154 11.6432 115.154 8.92544C115.154 6.115 113.37 4.13843 110.304 4.13843C109.678 4.13843 108.895 4.16931 108.489 4.26197V13.4654H108.457Z" fill="white"/>
<path id="Vector_14" d="M61.6448 13.033C61.6448 13.5889 61.989 13.8977 62.6461 14.0213V14.3301C62.2706 14.3301 61.0816 14.2992 60.7373 14.2992C60.4557 14.2992 59.2666 14.3301 58.9224 14.3301V14.0213C59.517 13.8977 59.8925 13.6198 59.8925 13.033V4.75611C59.8925 4.26197 59.6108 3.92224 58.9224 3.79871V3.48987C59.2979 3.48987 60.4557 3.52075 60.7686 3.52075C61.3006 3.52075 62.8339 3.4281 63.4284 3.4281C66.057 3.4281 67.4964 4.50904 67.4964 6.33119C67.4964 7.78273 66.4012 8.74013 64.7427 9.14163C64.7427 9.14163 65.1182 9.35781 65.4937 9.79019C65.9631 10.3152 67.2147 12.1374 67.7467 12.755C68.2474 13.3727 68.9358 14.0522 69.6242 14.0831V14.3301C69.28 14.3919 68.748 14.4537 68.3412 14.4537C67.4651 14.4537 66.7454 14.1448 66.057 13.311C65.4624 12.6006 64.4298 11.0873 63.8352 10.3152C63.4597 9.85196 62.9904 9.45046 62.1455 9.32693C61.989 9.29604 61.8326 9.26516 61.6448 9.26516V13.033ZM61.6448 8.64748C61.989 8.67837 62.4897 8.70925 63.0216 8.70925C65.0556 8.70925 65.7127 7.53566 65.7127 6.51649C65.7127 5.06495 64.7427 4.16931 62.9278 4.16931C62.5523 4.16931 62.0203 4.2002 61.6448 4.29285V8.64748Z" fill="white"/>
<path id="Vector_15" d="M96.1283 13.033C96.1283 13.5889 96.4725 13.8977 97.1297 14.0213V14.3301C96.7542 14.3301 95.5651 14.2992 95.2209 14.2992C94.9392 14.2992 93.7502 14.3301 93.4059 14.3301V14.0213C94.0005 13.8977 94.376 13.6198 94.376 13.033V4.75611C94.376 4.26197 94.0944 3.92224 93.4059 3.79871V3.48987C93.7814 3.48987 94.9079 3.52075 95.2522 3.52075C95.7841 3.52075 97.3174 3.4281 97.912 3.4281C100.54 3.4281 101.98 4.50904 101.98 6.33119C101.98 7.78273 100.885 8.74013 99.2262 9.14163C99.2262 9.14163 99.6017 9.35781 99.9772 9.79019C100.447 10.3152 101.73 12.1374 102.23 12.755C102.762 13.3727 103.419 14.0522 104.108 14.0831V14.3301C103.764 14.3919 103.232 14.4537 102.825 14.4537C101.917 14.4537 101.229 14.1448 100.54 13.311C99.9459 12.6006 98.9133 11.0873 98.3188 10.3152C97.9433 9.85196 97.4739 9.45046 96.629 9.32693C96.4725 9.29604 96.3161 9.26516 96.1283 9.26516V13.033ZM96.1283 8.64748C96.4725 8.67837 96.9732 8.70925 97.5052 8.70925C99.5391 8.70925 100.196 7.53566 100.196 6.51649C100.196 5.06495 99.2262 4.16931 97.4113 4.16931C97.0358 4.16931 96.5038 4.2002 96.1283 4.29285V8.64748Z" fill="white"/>
<path id="Vector_16" d="M45.7799 14.0213C46.4683 13.8669 46.8438 13.4345 47.0941 12.8168L50.5988 4.50904C50.7553 4.16931 50.9117 3.45898 50.9117 3.45898H51.8818C51.8818 3.45898 52.0695 4.16931 52.1947 4.50904L55.8871 12.8477C56.1375 13.4345 56.4504 13.836 57.1701 14.0213V14.2992C56.7633 14.2992 55.5116 14.2684 55.23 14.2684C54.9484 14.2684 53.7593 14.2992 53.3525 14.2992V14.0213C53.8845 13.8977 54.0722 13.6198 54.0722 13.3727C54.0722 13.1565 53.9783 12.9095 53.8532 12.6315L53.0709 10.8402H49.0029L48.2832 12.6315C48.1894 12.8477 48.0955 13.1256 48.0955 13.311C48.0955 13.6198 48.2519 13.836 48.8778 14.0213V14.2992C48.5023 14.2992 47.5635 14.2684 47.3445 14.2684L45.7486 14.2992L45.7799 14.0213ZM52.758 9.97549L51.0056 5.96058L49.3784 9.97549H52.758Z" fill="white"/>
<path id="Vector_17" d="M80.4825 14.0213C81.1709 13.8669 81.5464 13.4345 81.7967 12.8168L85.3014 4.50904C85.4579 4.16931 85.6143 3.45898 85.6143 3.45898H86.5844C86.5844 3.45898 86.7721 4.16931 86.8973 4.50904L90.5897 12.8477C90.8401 13.4345 91.153 13.836 91.8727 14.0213V14.2992C91.4659 14.2992 90.2142 14.2684 89.9326 14.2684C89.651 14.2684 88.4619 14.2992 88.0551 14.2992V14.0213C88.5871 13.8977 88.7748 13.6198 88.7748 13.3727C88.7748 13.1565 88.6809 12.9095 88.5871 12.6315L87.8048 10.8402H83.7368L83.0171 12.6315C82.9232 12.8477 82.8294 13.1256 82.8294 13.311C82.8294 13.6198 82.9858 13.836 83.6117 14.0213V14.2992C83.2362 14.2992 82.2974 14.2684 82.0784 14.2684L80.4825 14.2992V14.0213ZM87.4605 9.97549L85.7082 5.96058L84.081 9.97549H87.4605Z" fill="white"/>
<path id="Vector_18" d="M0.187744 0.154419H24.5953V9.26517C24.5953 13.4345 23.0308 22.2982 12.4854 28.8765C12.4854 28.8765 1.06391 24.1512 0.187744 9.26517V0.154419Z" fill="white"/>
<path id="Vector_19" d="M0.156433 0.154419H24.564V9.26517C24.564 13.4345 22.9994 22.2673 12.4541 28.8765C12.4541 28.8765 1.0326 24.1821 0.156433 9.26517V0.154419Z" stroke="black" stroke-width="0.915"/>
<path id="Vector_20" d="M18.6812 11.8594C18.6812 11.8594 18.4622 12.5389 17.4921 11.8285L14.1752 11.7359C14.1752 11.7359 13.7371 11.8594 13.6745 11.427C13.6745 11.427 13.7684 10.5314 13.7058 10.4387C13.7058 10.4387 13.7371 10.1917 13.299 10.1917C13.299 10.1917 12.6106 10.2843 12.6106 9.69753C12.6106 9.69753 12.4854 9.07986 13.4242 9.07986C13.4242 9.07986 13.7058 9.20339 13.7371 8.83279C13.7371 8.83279 13.7058 6.3003 13.7058 6.115C13.7058 6.115 13.7997 5.86793 13.3303 5.83704C13.3303 5.83704 12.6732 5.96058 12.6106 5.55909C12.6106 5.55909 12.5793 4.91053 13.0174 4.87964C13.0174 4.87964 13.5493 4.91053 13.6432 4.78699C13.6432 4.78699 13.7684 4.84876 13.7371 4.3855L13.7684 3.58252C13.7684 3.58252 13.831 3.36633 14.1752 3.39722C14.1752 3.39722 14.801 3.4281 14.8636 3.36633C14.8636 3.36633 14.9888 3.18103 15.0513 3.11926C15.0513 3.11926 15.3643 3.08838 15.4268 3.18103C15.4268 3.18103 15.8962 3.48987 17.7112 3.36633C17.7112 3.36633 17.9928 3.36633 18.0554 3.45898C18.0554 3.45898 18.3996 3.70605 18.5873 3.4281C18.5873 3.4281 18.8689 3.36633 19.7764 3.39722C19.7764 3.39722 20.7465 3.64429 21.4349 3.11926L21.6539 3.15014C21.6539 3.15014 21.9355 3.6134 22.1233 3.45898C22.1233 3.45898 22.7178 3.39722 22.8117 3.52075C22.8117 3.52075 22.9995 3.79871 22.9056 4.5708C22.9056 4.5708 22.7804 4.91053 23.375 4.91053C23.375 4.91053 24.0321 4.78699 23.9382 5.40467C23.9382 5.40467 24.126 6.08412 23.0308 5.99146C23.0308 5.99146 22.9056 6.17677 22.9056 6.33119C22.9056 6.33119 22.8743 8.55483 22.8743 8.8019C22.8743 8.8019 22.843 9.14162 23.3437 9.14162C23.3437 9.14162 23.9695 9.11074 24.0008 9.66665C24.0008 9.66665 24.0947 10.4079 23.1559 10.2843C23.1559 10.2843 22.8743 10.3152 22.843 10.5005L22.8117 11.4888C22.8117 11.4888 22.843 11.9829 22.2798 11.8594C22.1859 11.8594 19.1819 11.9212 18.9315 11.8285C18.8377 11.7976 18.7125 11.7668 18.6812 11.8594Z" fill="white"/>
<path id="Vector_21" d="M12.2664 15.1331C12.2664 15.1331 12.3915 15.0714 12.4541 14.9787C12.4541 14.9787 12.8609 14.9478 12.9235 14.8861L14.2378 14.9787C14.2378 14.9787 15.5207 15.0714 16.084 14.6699C16.084 14.6699 16.2717 14.6699 16.4282 14.7316C16.4282 14.7316 16.7098 14.7934 16.7724 14.9169L17.5234 14.8861C17.5234 14.8861 17.9615 15.0096 17.9302 15.2875V15.6273C17.9302 15.6273 17.8363 16.3376 18.0554 16.3685H18.6186C18.6186 16.3685 19.088 16.5847 19.0254 16.8626C19.0254 16.8626 19.0567 17.2641 18.6186 17.3259C18.6186 17.3259 18.2118 17.4494 18.0554 17.4185C18.0554 17.4185 17.9302 17.6038 17.8989 17.82L17.8676 20.3834C17.8676 20.3834 17.8363 20.6614 18.2431 20.6305C18.2431 20.6305 18.8689 20.5687 19.0254 20.9084C19.0254 20.9084 19.1819 21.4643 18.8689 21.557L18.6186 21.6805L18.1179 21.7732C18.1179 21.7732 17.8989 21.8041 17.8676 22.1747V22.8541C17.8676 22.8541 17.8989 23.3174 17.5234 23.3174L16.9601 23.3483C16.9601 23.3483 16.835 23.4718 16.5533 23.3791C16.5533 23.3791 13.1738 23.4409 13.08 23.41L12.6732 23.4718C12.6732 23.4718 12.2351 23.8733 11.8909 23.5644L11.6092 23.3483C11.6092 23.3483 11.4215 23.3791 11.3276 23.3791C11.2337 23.3483 7.60389 23.41 7.60389 23.41C7.60389 23.41 6.8216 23.5027 6.75901 23.2247C6.75901 23.2247 6.66514 22.2364 6.69643 22.1129C6.69643 22.1129 6.69643 21.8349 6.50868 21.8041C6.50868 21.8041 5.72638 21.7732 5.72638 21.6805C5.72638 21.6805 5.31959 21.4026 5.44476 21.0937C5.44476 21.0937 5.56993 20.6922 6.00801 20.6614C6.00801 20.6614 6.63385 20.754 6.63385 20.5687C6.63385 20.5687 6.66514 20.4452 6.66514 20.2599C6.66514 20.2599 6.69643 17.9436 6.69643 17.7891C6.69643 17.7891 6.75901 17.4803 6.50868 17.4803C6.50868 17.4803 6.22705 17.573 6.0393 17.4494C6.0393 17.4494 5.56993 17.4803 5.47605 17.1097C5.47605 17.1097 5.38217 16.8626 5.50734 16.6773C5.50734 16.6773 5.72638 16.245 6.35222 16.3994C6.35222 16.3994 6.69643 16.492 6.75901 16.245L6.72772 15.3184C6.72772 15.3184 6.63385 15.0714 7.13451 14.9169C7.13451 14.9169 7.76035 15.1022 7.97939 14.7934C7.97939 14.7934 8.19844 14.361 8.38619 14.6699C8.38619 14.6699 8.76169 15.0096 9.79432 14.9787C9.79432 14.9787 11.5779 14.8552 11.6092 14.9169C11.6092 14.9169 12.0473 14.9787 12.1725 15.1022L12.2664 15.1331Z" fill="white"/>
<path id="Vector_22" d="M6.88414 11.8594C6.88414 11.8594 6.6651 12.5389 5.69505 11.8285L2.37812 11.7668C2.37812 11.7668 1.94004 11.8903 1.87745 11.4579C1.87745 11.4579 1.97133 10.5623 1.90874 10.4696C1.90874 10.4696 1.94004 10.2226 1.50195 10.2226C1.50195 10.2226 0.844823 10.3152 0.813531 9.72842C0.813531 9.72842 0.688364 9.11074 1.62712 9.11074C1.62712 9.11074 1.90874 9.23428 1.94004 8.86367C1.94004 8.86367 1.90874 6.33119 1.90874 6.115C1.90874 6.115 2.00262 5.86793 1.53324 5.83705C1.53324 5.83705 0.876115 5.96058 0.813531 5.52821C0.813531 5.52821 0.782239 4.87964 1.22032 4.84876C1.22032 4.84876 1.75228 4.87964 1.84616 4.75611C1.84616 4.75611 1.97133 4.81788 1.94004 4.35462L1.97133 3.55164C1.97133 3.55164 2.03391 3.33545 2.37812 3.36633C2.37812 3.36633 3.00396 3.39722 3.06654 3.33545C3.06654 3.33545 3.19171 3.15014 3.25429 3.08838C3.25429 3.08838 3.56721 3.05749 3.62979 3.15014C3.62979 3.15014 4.09917 3.45898 5.91409 3.33545C5.91409 3.33545 6.19572 3.33545 6.2583 3.4281C6.2583 3.4281 6.60251 3.67517 6.79026 3.39722C6.79026 3.39722 7.07189 3.33545 7.97935 3.36633C7.97935 3.36633 8.9494 3.6134 9.60652 3.08838L9.82557 3.11926C9.82557 3.11926 10.1072 3.58252 10.2949 3.4281C10.2949 3.4281 10.8895 3.36633 10.9834 3.48987C10.9834 3.48987 11.1711 3.76782 11.0772 4.53992C11.0772 4.53992 10.9521 4.87964 11.5466 4.87964C11.5466 4.87964 12.2037 4.75611 12.1099 5.37379C12.1099 5.37379 12.2976 6.05323 11.2024 5.96058C11.2024 5.96058 11.0772 6.14588 11.0772 6.3003C11.0772 6.3003 11.0459 8.52395 11.0459 8.77102C11.0459 8.77102 11.0147 9.11074 11.5153 9.11074C11.5153 9.11074 12.1412 9.07986 12.1725 9.63577C12.1725 9.63577 12.2663 10.377 11.3276 10.2534C11.3276 10.2534 11.0459 10.2843 11.0147 10.4696L10.9521 11.4579C10.9521 11.4579 10.9834 11.9521 10.4201 11.8285C10.3262 11.8285 7.32222 11.8903 7.07189 11.7976C7.07189 11.7976 6.94672 11.7668 6.88414 11.8594Z" fill="white"/>
<path id="Vector_23" d="M18.6812 11.8594C18.6812 11.8594 18.4622 12.5389 17.4921 11.8285L14.1752 11.7359C14.1752 11.7359 13.7371 11.8594 13.6745 11.427C13.6745 11.427 13.7684 10.5314 13.7058 10.4387C13.7058 10.4387 13.7371 10.1917 13.299 10.1917C13.299 10.1917 12.6106 10.2843 12.6106 9.69753C12.6106 9.69753 12.4854 9.07986 13.4242 9.07986C13.4242 9.07986 13.7058 9.20339 13.7371 8.83279C13.7371 8.83279 13.7058 6.3003 13.7058 6.115C13.7058 6.115 13.7997 5.86793 13.3303 5.83704C13.3303 5.83704 12.6732 5.96058 12.6106 5.55909C12.6106 5.55909 12.5793 4.91053 13.0174 4.87964C13.0174 4.87964 13.5493 4.91053 13.6432 4.78699C13.6432 4.78699 13.7684 4.84876 13.7371 4.3855L13.7684 3.58252C13.7684 3.58252 13.831 3.36633 14.1752 3.39722C14.1752 3.39722 14.801 3.4281 14.8636 3.36633C14.8636 3.36633 14.9888 3.18103 15.0513 3.11926C15.0513 3.11926 15.3643 3.08838 15.4268 3.18103C15.4268 3.18103 15.8962 3.48987 17.7112 3.36633C17.7112 3.36633 17.9928 3.36633 18.0554 3.45898C18.0554 3.45898 18.3996 3.70605 18.5873 3.4281C18.5873 3.4281 18.8689 3.36633 19.7764 3.39722C19.7764 3.39722 20.7465 3.64429 21.4349 3.11926L21.6539 3.15014C21.6539 3.15014 21.9355 3.6134 22.1233 3.45898C22.1233 3.45898 22.7178 3.39722 22.8117 3.52075C22.8117 3.52075 22.9995 3.79871 22.9056 4.5708C22.9056 4.5708 22.7804 4.91053 23.375 4.91053C23.375 4.91053 24.0321 4.78699 23.9382 5.40467C23.9382 5.40467 24.126 6.08412 23.0308 5.99146C23.0308 5.99146 22.9056 6.17677 22.9056 6.33119C22.9056 6.33119 22.8743 8.55483 22.8743 8.8019C22.8743 8.8019 22.843 9.14162 23.3437 9.14162C23.3437 9.14162 23.9695 9.11074 24.0008 9.66665C24.0008 9.66665 24.0947 10.4079 23.1559 10.2843C23.1559 10.2843 22.8743 10.3152 22.843 10.5005L22.8117 11.4888C22.8117 11.4888 22.843 11.9829 22.2798 11.8594C22.1859 11.8594 19.1819 11.9212 18.9315 11.8285C18.8377 11.7976 18.7125 11.7668 18.6812 11.8594Z" fill="#1E1E1E"/>
<path id="Vector_24" d="M18.6812 11.8594C18.6812 11.8594 18.4622 12.5389 17.4921 11.8285L14.1752 11.7359C14.1752 11.7359 13.7371 11.8594 13.6745 11.427C13.6745 11.427 13.7684 10.5314 13.7058 10.4387C13.7058 10.4387 13.7371 10.1917 13.299 10.1917C13.299 10.1917 12.6106 10.2843 12.6106 9.69753C12.6106 9.69753 12.4854 9.07986 13.4242 9.07986C13.4242 9.07986 13.7058 9.20339 13.7371 8.83279C13.7371 8.83279 13.7058 6.3003 13.7058 6.115C13.7058 6.115 13.7997 5.86793 13.3303 5.83704C13.3303 5.83704 12.6732 5.96058 12.6106 5.55909C12.6106 5.55909 12.5793 4.91053 13.0174 4.87964C13.0174 4.87964 13.5493 4.91053 13.6432 4.78699C13.6432 4.78699 13.7684 4.84876 13.7371 4.3855L13.7684 3.58252C13.7684 3.58252 13.831 3.36633 14.1752 3.39722C14.1752 3.39722 14.801 3.4281 14.8636 3.36633C14.8636 3.36633 14.9888 3.18103 15.0513 3.11926C15.0513 3.11926 15.3643 3.08838 15.4268 3.18103C15.4268 3.18103 15.8962 3.48987 17.7112 3.36633C17.7112 3.36633 17.9928 3.36633 18.0554 3.45898C18.0554 3.45898 18.3996 3.70605 18.5873 3.4281C18.5873 3.4281 18.8689 3.36633 19.7764 3.39722C19.7764 3.39722 20.7465 3.64429 21.4349 3.11926L21.6539 3.15014C21.6539 3.15014 21.9355 3.6134 22.1233 3.45898C22.1233 3.45898 22.7178 3.39722 22.8117 3.52075C22.8117 3.52075 22.9995 3.79871 22.9056 4.5708C22.9056 4.5708 22.7804 4.91053 23.375 4.91053C23.375 4.91053 24.0321 4.78699 23.9382 5.40467C23.9382 5.40467 24.126 6.08412 23.0308 5.99146C23.0308 5.99146 22.9056 6.17677 22.9056 6.33119C22.9056 6.33119 22.8743 8.55483 22.8743 8.8019C22.8743 8.8019 22.843 9.14162 23.3437 9.14162C23.3437 9.14162 23.9695 9.11074 24.0008 9.66665C24.0008 9.66665 24.0947 10.4079 23.1559 10.2843C23.1559 10.2843 22.8743 10.3152 22.843 10.5005L22.8117 11.4888C22.8117 11.4888 22.843 11.9829 22.2798 11.8594C22.1859 11.8594 19.1819 11.9212 18.9315 11.8285C18.8377 11.7976 18.7125 11.7668 18.6812 11.8594Z" stroke="black" stroke-width="0.2189"/>
<path id="Vector_25" d="M14.9262 3.79871C14.9262 3.79871 14.9575 4.2002 14.9575 4.29285C14.9575 4.3855 14.8949 9.94461 14.8949 9.94461C14.8949 9.94461 14.9575 10.377 14.582 10.5932C14.582 10.5932 14.4881 10.6241 14.4568 10.3461L14.4881 4.47815C14.5194 4.47815 14.5507 3.76782 14.9262 3.79871Z" fill="white"/>
<path id="Vector_26" d="M14.9262 3.79871C14.9262 3.79871 14.9575 4.2002 14.9575 4.29285C14.9575 4.3855 14.8949 9.94461 14.8949 9.94461C14.8949 9.94461 14.9575 10.377 14.582 10.5932C14.582 10.5932 14.4881 10.6241 14.4568 10.3461L14.4881 4.47815C14.5194 4.47815 14.5507 3.76782 14.9262 3.79871Z" stroke="black" stroke-width="0.2305"/>
<path id="Vector_27" d="M14.269 10.655C14.269 10.655 14.3003 5.15764 14.3003 5.06499C14.269 4.97234 14.3316 5.15764 14.3316 5.15764C14.3316 5.15764 14.269 4.20024 14.5194 3.79875C14.5194 3.79875 14.4255 3.45902 13.9874 3.8914L13.9561 4.63261C13.9561 4.63261 13.9561 5.09587 13.5493 5.06499C13.5493 5.06499 13.0799 5.0341 12.8609 5.25029C12.8609 5.25029 12.7357 5.68267 13.2051 5.59001C13.2051 5.59001 13.9248 5.59001 13.9561 5.86797L13.9248 8.83283C13.9248 8.83283 14.0813 9.32697 13.518 9.32697C13.518 9.32697 12.8296 9.29608 12.8609 9.69757C12.8609 9.69757 12.9861 10.0373 13.5806 9.94465C13.5806 9.94465 13.9874 10.0064 13.9874 10.4079V11.1491C13.9874 11.1491 13.9561 11.458 14.3316 11.458H17.4295C17.4295 11.458 17.586 11.4888 17.586 11.2727C17.586 11.2727 17.5547 11.1182 17.3356 11.1182H14.7384C14.7384 11.1182 14.3003 11.2418 14.269 10.655Z" fill="white"/>
<path id="Vector_28" d="M14.8636 10.6241C14.8636 10.6241 14.7697 10.902 15.0826 10.8403H17.1166L17.6799 10.9638C17.6799 10.9638 18.2431 10.8403 17.6799 10.5005C17.6799 10.5005 15.8649 10.5314 15.7085 10.4697C15.7085 10.4697 15.333 10.377 15.2391 10.3461C15.2391 10.377 15.0514 10.3152 14.8636 10.6241Z" fill="white"/>
<path id="Vector_29" d="M14.8636 10.6241C14.8636 10.6241 14.7697 10.902 15.0826 10.8403H17.1166L17.6799 10.9638C17.6799 10.9638 18.2431 10.8403 17.6799 10.5005C17.6799 10.5005 15.8649 10.5314 15.7085 10.4697C15.7085 10.4697 15.333 10.377 15.2391 10.3461C15.2391 10.377 15.0514 10.3152 14.8636 10.6241Z" stroke="black" stroke-width="0.2305"/>
<path id="Vector_30" d="M18.2431 10.902C18.2431 10.902 17.8676 10.902 17.8989 11.3962C17.8989 11.3962 17.9302 11.7668 18.337 11.7668C18.337 11.7668 18.6812 11.705 18.6499 11.3035C18.6499 11.3344 18.4308 10.8402 18.2431 10.902Z" fill="white"/>
<path id="Vector_31" d="M18.5247 10.7167C18.5247 10.7167 18.7125 10.5314 18.8064 10.5314C18.8064 10.5314 20.7777 10.7167 21.1219 10.4697C21.1219 10.4697 21.4349 10.4079 21.4974 10.4697C21.4974 10.4697 21.7791 10.7167 21.7791 10.8403C21.7791 10.8403 21.7478 11.0256 21.4036 10.902C21.4036 10.902 19.1819 10.9329 19.0567 10.9329C19.088 10.9329 18.4621 11.0564 18.5247 10.7167Z" fill="white"/>
<path id="Vector_32" d="M18.5247 10.7167C18.5247 10.7167 18.7125 10.5314 18.8064 10.5314C18.8064 10.5314 20.7777 10.7167 21.1219 10.4697C21.1219 10.4697 21.4349 10.4079 21.4974 10.4697C21.4974 10.4697 21.7791 10.7167 21.7791 10.8403C21.7791 10.8403 21.7478 11.0256 21.4036 10.902C21.4036 10.902 19.1819 10.9329 19.0567 10.9329C19.088 10.9329 18.4621 11.0564 18.5247 10.7167Z" stroke="black" stroke-width="0.2305"/>
<path id="Vector_33" d="M18.775 11.3344C18.775 11.3344 18.775 11.18 19.0567 11.18L21.8416 11.1491C21.8416 11.1491 22.092 11.2726 22.092 10.8093C22.092 10.8093 22.1858 8.67836 22.2171 6.33118C22.2171 5.62085 22.2484 4.91052 22.2171 4.23107C22.2171 4.23107 22.1545 3.95312 22.092 3.89135C22.092 3.89135 22.092 3.58251 22.4362 3.70605C22.4362 3.70605 22.7178 3.73693 22.6552 4.16931L22.6865 4.84875C22.6865 4.84875 22.6239 5.15759 23.1559 5.06494C23.1559 5.06494 23.6878 5.15759 23.7191 5.3429C23.7191 5.3429 23.8756 5.74439 23.2498 5.68262H22.7804C22.7804 5.68262 22.5926 5.80615 22.6552 6.02234L22.53 8.89455C22.53 8.89455 22.4987 9.38869 22.9681 9.35781C22.9681 9.35781 23.4688 9.32692 23.5627 9.48134C23.5627 9.48134 23.9069 9.97548 23.1559 9.9446C23.1559 9.9446 22.6865 9.91372 22.5926 10.0064C22.5926 10.0064 22.4987 10.099 22.4675 11.0255C22.4675 11.0255 22.4987 11.5814 22.092 11.5197C22.092 11.5197 19.3383 11.5506 19.0879 11.4888C19.0879 11.4888 18.8376 11.5506 18.775 11.3344Z" fill="white"/>
<path id="Vector_34" d="M15.2391 3.64429L15.1765 9.91372C15.1765 9.91372 15.1452 10.1917 15.6458 10.2534C15.6458 10.2534 16.2091 10.3152 16.3656 10.2534C16.3656 10.2534 16.7411 10.2226 17.7111 10.2843C17.7111 10.2843 17.9614 10.5314 17.9614 10.2226C17.9614 10.2226 18.1179 5.1576 18.0553 4.07666C18.0553 4.07666 18.024 3.6134 17.7111 3.6134C17.7111 3.6134 16.2091 3.73694 16.0839 3.6134L15.4894 3.45898C15.4268 3.45898 15.2078 3.48987 15.2391 3.64429Z" fill="white"/>
<path id="Vector_35" d="M18.3369 3.95311C18.3369 3.95311 18.2744 6.88708 18.3056 7.01062L18.2744 9.48133L18.1805 10.3461C18.1805 10.3461 18.3056 10.5314 18.3995 10.4079C18.3995 10.4079 19.0254 10.2534 19.4322 10.3152C19.4322 10.3152 20.7151 10.4387 20.9655 10.2225C20.9655 10.2225 21.1532 10.3152 21.2158 10.0064C21.2158 10.0064 21.2784 4.53991 21.2471 4.44725C21.2471 4.44725 21.3097 3.67516 21.2784 3.5825C21.2784 3.5825 21.2471 3.3972 20.9342 3.55162C20.9342 3.55162 20.9655 3.70604 19.0879 3.64427C19.0879 3.64427 18.3995 3.64427 18.3369 3.95311Z" fill="white"/>
<path id="Vector_36" d="M21.4974 3.86048L21.4661 10.0373C21.4661 10.0373 21.6226 10.5932 21.8729 10.5314C21.8729 10.5314 21.9042 10.4079 21.9355 10.2226L22.0294 4.35463C22.0294 4.32374 21.8416 3.39723 21.4974 3.86048Z" fill="white"/>
<path id="Vector_37" d="M21.4974 3.86048L21.4661 10.0373C21.4661 10.0373 21.6226 10.5932 21.8729 10.5314C21.8729 10.5314 21.9042 10.4079 21.9355 10.2226L22.0294 4.35463C22.0294 4.32374 21.8416 3.39723 21.4974 3.86048Z" stroke="black" stroke-width="0.2305"/>
<path id="Vector_38" d="M19.0567 5.7135C18.9941 5.55908 19.4009 5.5282 19.4009 5.5282L19.5886 5.55908C19.7138 5.5282 19.8703 5.58997 19.8703 5.58997C19.9954 5.80615 19.7764 5.92969 19.7764 5.92969L19.7138 6.20764C19.6825 6.42383 19.7138 8.27687 19.7138 8.27687C19.7451 8.36952 19.9015 8.55482 19.9015 8.55482C19.9015 8.74013 19.6825 8.67836 19.6825 8.67836L19.1192 8.70924C18.9315 8.67836 18.9941 8.49305 18.9941 8.49305C19.1818 8.4004 19.2444 8.0298 19.2444 8.0298V6.08411L19.0567 5.7135Z" fill="#1E1E1E"/>
<path id="Vector_39" d="M16.3969 7.53568L16.3656 8.15336L16.5533 8.43131C16.6785 8.58573 16.4595 8.70927 16.4595 8.70927L15.8336 8.6475C15.7085 8.58573 15.8336 8.40043 15.8336 8.40043C15.9901 8.30778 16.0214 8.06071 16.0214 8.06071L15.9901 6.918L16.0214 6.08414C16.0214 5.99148 15.8649 5.80618 15.8649 5.80618C15.7398 5.7753 15.7711 5.62088 15.7711 5.62088C15.8023 5.52823 16.1466 5.58999 16.1466 5.58999H16.9914C17.7737 5.83706 17.6799 6.42386 17.6799 6.42386C17.7424 6.97977 17.1166 7.22684 17.1166 7.22684L17.0853 7.53568L17.6486 8.43131C17.7424 8.52397 17.7424 8.58573 17.7424 8.58573C17.6486 8.80192 17.3356 8.58573 17.3356 8.58573L16.5846 7.47391C16.5221 7.38126 16.3969 7.53568 16.3969 7.53568ZM16.4282 5.99148C16.4595 6.42386 16.4595 7.01065 16.4595 7.01065C16.835 7.28861 17.054 6.88712 17.054 6.88712C17.5547 6.42386 17.054 5.99148 16.9601 5.86795C16.8663 5.74441 16.4908 5.83706 16.4908 5.83706L16.4282 5.99148Z" fill="#1E1E1E"/>
<path id="Vector_40" d="M12.2664 15.1331C12.2664 15.1331 12.3915 15.0714 12.4541 14.9787C12.4541 14.9787 12.8609 14.9478 12.9235 14.8861L14.2378 14.9787C14.2378 14.9787 15.5207 15.0714 16.084 14.6699C16.084 14.6699 16.2717 14.6699 16.4282 14.7316C16.4282 14.7316 16.7098 14.7934 16.7724 14.9169L17.5234 14.8861C17.5234 14.8861 17.9615 15.0096 17.9302 15.2875V15.6273C17.9302 15.6273 17.8363 16.3376 18.0554 16.3685H18.6186C18.6186 16.3685 19.088 16.5847 19.0254 16.8626C19.0254 16.8626 19.0567 17.2641 18.6186 17.3259C18.6186 17.3259 18.2118 17.4494 18.0554 17.4185C18.0554 17.4185 17.9302 17.6038 17.8989 17.82L17.8676 20.3834C17.8676 20.3834 17.8363 20.6614 18.2431 20.6305C18.2431 20.6305 18.8689 20.5687 19.0254 20.9084C19.0254 20.9084 19.1819 21.4643 18.8689 21.557L18.6186 21.6805L18.1179 21.7732C18.1179 21.7732 17.8989 21.8041 17.8676 22.1747V22.8541C17.8676 22.8541 17.8989 23.3174 17.5234 23.3174L16.9601 23.3483C16.9601 23.3483 16.835 23.4718 16.5533 23.3791C16.5533 23.3791 13.1738 23.4409 13.08 23.41L12.6732 23.4718C12.6732 23.4718 12.2351 23.8733 11.8909 23.5644L11.6092 23.3483C11.6092 23.3483 11.4215 23.3791 11.3276 23.3791C11.2337 23.3483 7.60389 23.41 7.60389 23.41C7.60389 23.41 6.8216 23.5027 6.75901 23.2247C6.75901 23.2247 6.66514 22.2364 6.69643 22.1129C6.69643 22.1129 6.69643 21.8349 6.50868 21.8041C6.50868 21.8041 5.72638 21.7732 5.72638 21.6805C5.72638 21.6805 5.31959 21.4026 5.44476 21.0937C5.44476 21.0937 5.56993 20.6922 6.00801 20.6614C6.00801 20.6614 6.63385 20.754 6.63385 20.5687C6.63385 20.5687 6.66514 20.4452 6.66514 20.2599C6.66514 20.2599 6.69643 17.9436 6.69643 17.7891C6.69643 17.7891 6.75901 17.4803 6.50868 17.4803C6.50868 17.4803 6.22705 17.573 6.0393 17.4494C6.0393 17.4494 5.56993 17.4803 5.47605 17.1097C5.47605 17.1097 5.38217 16.8626 5.50734 16.6773C5.50734 16.6773 5.72638 16.245 6.35222 16.3994C6.35222 16.3994 6.69643 16.492 6.75901 16.245L6.72772 15.3184C6.72772 15.3184 6.63385 15.0714 7.13451 14.9169C7.13451 14.9169 7.76035 15.1022 7.97939 14.7934C7.97939 14.7934 8.19844 14.361 8.38619 14.6699C8.38619 14.6699 8.76169 15.0096 9.79432 14.9787C9.79432 14.9787 11.5779 14.8552 11.6092 14.9169C11.6092 14.9169 12.0473 14.9787 12.1725 15.1022L12.2664 15.1331Z" fill="#1E1E1E"/>
<path id="Vector_41" d="M12.2664 15.1022C12.2664 15.1022 12.3915 15.0405 12.4541 14.9478C12.4541 14.9478 12.8609 14.9169 12.9235 14.8552L14.2378 14.9478C14.2378 14.9478 15.5207 15.0405 16.084 14.639C16.084 14.639 16.2717 14.639 16.4282 14.7008C16.4282 14.7008 16.7098 14.7625 16.7724 14.8861L17.5234 14.8552C17.5234 14.8552 17.9615 14.9787 17.9302 15.2567V15.5964C17.9302 15.5964 17.8363 16.3067 18.0554 16.3376H18.6186C18.6186 16.3376 19.088 16.5538 19.0254 16.8317C19.0254 16.8317 19.0567 17.2332 18.6186 17.295C18.6186 17.295 18.2118 17.4185 18.0554 17.3877C18.0554 17.3877 17.9302 17.573 17.8989 17.7891L17.8676 20.3834C17.8676 20.3834 17.8363 20.6614 18.2431 20.6305C18.2431 20.6305 18.8689 20.5687 19.0254 20.9084C19.0254 20.9084 19.1819 21.4643 18.8689 21.557L18.6186 21.6805L18.1179 21.7732C18.1179 21.7732 17.8989 21.8041 17.8676 22.1747V22.8541C17.8676 22.8541 17.8989 23.3174 17.5234 23.3174L16.9601 23.3483C16.9601 23.3483 16.835 23.4718 16.5533 23.3791C16.5533 23.3791 13.1738 23.4409 13.08 23.41L12.6732 23.5027C12.6732 23.5027 12.2351 23.9042 11.8909 23.5953L11.6092 23.3791C11.6092 23.3791 11.4215 23.41 11.3276 23.41C11.2337 23.3791 7.60389 23.4409 7.60389 23.4409C7.60389 23.4409 6.8216 23.5336 6.75901 23.2556C6.75901 23.2556 6.66514 22.2673 6.69643 22.1438C6.69643 22.1438 6.69643 21.8658 6.50868 21.8349C6.50868 21.8349 5.72638 21.8041 5.72638 21.7114C5.72638 21.7114 5.31959 21.4026 5.44476 21.1246C5.44476 21.1246 5.56993 20.7231 6.00801 20.6922C6.00801 20.6922 6.63385 20.7849 6.63385 20.5996C6.63385 20.5996 6.66514 20.476 6.66514 20.2907C6.66514 20.2907 6.69643 17.9745 6.69643 17.82C6.69643 17.82 6.75901 17.5112 6.50868 17.5112C6.50868 17.5112 6.22705 17.6038 6.0393 17.4803C6.0393 17.4803 5.56993 17.5112 5.47605 17.1406C5.47605 17.1406 5.38217 16.8935 5.50734 16.7082C5.50734 16.7082 5.72638 16.2758 6.35222 16.4303C6.35222 16.4303 6.69643 16.5229 6.75901 16.2758L6.72772 15.3493C6.72772 15.3493 6.63385 15.1022 7.13451 14.9478C7.13451 14.9478 7.76035 15.1331 7.97939 14.8243C7.97939 14.8243 8.19844 14.3919 8.38619 14.7008C8.38619 14.7008 8.76169 15.0405 9.79432 15.0096C9.79432 15.0096 11.5779 14.8861 11.6092 14.9478C11.6092 14.9478 12.0473 15.0096 12.1725 15.1331L12.2664 15.1022Z" stroke="black" stroke-width="0.2189"/>
<path id="Vector_42" d="M12.7983 22.7923C12.7983 22.7923 13.0487 22.6688 13.2051 22.7306C13.3616 22.7614 15.6772 22.6997 15.6772 22.6997C15.6772 22.6997 16.6785 22.7923 16.835 22.6379L17.0853 22.5453C17.0853 22.5453 17.1792 22.4217 17.1792 22.2673C17.1792 22.1129 17.2105 21.5879 17.2105 21.5879L17.2731 21.4025C17.2731 21.4025 17.2418 21.2172 17.2731 15.9979C17.2731 15.9979 17.3356 15.5964 17.0853 15.3493C17.0853 15.3493 17.0853 15.1949 17.1792 15.2258C17.2731 15.2566 17.2105 15.2566 17.2105 15.2566C17.2105 15.2566 17.5547 15.164 17.6173 15.2875C17.6173 15.2875 17.7737 15.7508 17.6486 16.0287C17.6486 16.0287 17.6173 16.5847 17.8989 16.5847C17.8989 16.5847 18.0241 16.7082 18.2431 16.6464C18.2431 16.6464 18.7438 16.7082 18.7438 16.8626C18.7438 16.8626 18.7438 17.2023 18.3996 17.1406L17.9302 17.1715C17.9302 17.1715 17.6173 17.2332 17.6486 17.6038C17.6798 17.9744 17.6173 20.6305 17.6173 20.6305C17.6173 20.6305 17.6173 20.9393 18.1179 20.9393C18.1179 20.9393 18.7438 20.9084 18.7438 21.0937C18.7438 21.0937 18.9002 21.4952 18.4621 21.4952C18.4621 21.4952 17.6173 21.4643 17.6798 21.7114C17.6798 21.7114 17.6173 22.2673 17.586 22.36C17.586 22.36 17.6798 22.8232 17.5547 22.885C17.5547 22.885 17.4921 23.132 16.9601 23.1012C16.9601 23.1012 13.5493 23.0703 13.0174 23.132C13.0174 23.1012 12.7045 23.0703 12.7983 22.7923Z" fill="white"/>
<path id="Vector_43" d="M12.1725 22.4218C12.1725 22.4218 12.5167 22.4835 12.5167 22.7924C12.5167 23.1012 12.548 23.2865 12.3289 23.3174C12.1412 23.3483 11.9221 23.2865 11.8595 23.0394C11.797 22.7924 11.8908 22.4835 12.1725 22.4218Z" fill="white"/>
<path id="Vector_44" d="M12.5793 22.2673C12.5793 22.2673 12.9235 22.0202 13.0799 22.082C13.0799 22.082 14.8948 22.2055 15.4268 22.1129C15.9901 22.0202 15.6459 22.082 15.6459 22.082C15.6459 22.082 16.1152 22.082 16.2717 21.8967C16.2717 21.8967 16.3969 21.8658 16.4907 21.9893L16.7724 22.2982C16.7724 22.2982 16.8036 22.4835 16.4594 22.4835C16.4594 22.4835 13.2364 22.4835 13.1425 22.5144C13.1112 22.5144 12.5167 22.607 12.5793 22.2673Z" fill="white"/>
<path id="Vector_45" d="M12.5793 22.2673C12.5793 22.2673 12.9235 22.0202 13.0799 22.082C13.0799 22.082 14.8948 22.2055 15.4268 22.1129C15.9901 22.0202 15.6459 22.082 15.6459 22.082C15.6459 22.082 16.1152 22.082 16.2717 21.8967C16.2717 21.8967 16.3969 21.8658 16.4907 21.9893L16.7724 22.2982C16.7724 22.2982 16.8036 22.4835 16.4594 22.4835C16.4594 22.4835 13.2364 22.4835 13.1425 22.5144C13.1112 22.5144 12.5167 22.607 12.5793 22.2673Z" stroke="black" stroke-width="0.2305"/>
<path id="Vector_46" d="M7.88551 15.3493C7.88551 15.3493 8.01068 15.3493 8.01068 15.5964L7.97939 21.4952C7.97939 21.4952 8.04197 21.8967 7.69776 22.1438C7.69776 22.1438 7.51001 22.36 7.51001 22.0202L7.60388 15.9979C7.57259 15.967 7.60389 15.5346 7.88551 15.3493Z" fill="white"/>
<path id="Vector_47" d="M7.88551 15.3493C7.88551 15.3493 8.01068 15.3493 8.01068 15.5964L7.97939 21.4952C7.97939 21.4952 8.04197 21.8967 7.69776 22.1438C7.69776 22.1438 7.51001 22.36 7.51001 22.0202L7.60388 15.9979C7.57259 15.967 7.60389 15.5346 7.88551 15.3493Z" stroke="black" stroke-width="0.2305"/>
<path id="Vector_48" d="M7.57258 15.3802C7.57258 15.3802 7.32224 15.8126 7.35353 15.9052L7.32224 17.2023C7.32224 17.2023 7.29095 18.0362 7.32224 18.1289C7.35353 18.2215 7.29095 20.6922 7.29095 20.6922C7.29095 20.6922 7.25966 21.1555 7.29095 21.3099V22.36C7.29095 22.36 7.25966 22.8232 7.60387 22.6997C7.60387 22.6997 11.0773 22.607 11.2963 22.6688C11.2963 22.6688 11.6092 22.7306 11.484 22.885C11.484 22.885 11.484 23.0085 11.265 22.9776C11.265 22.9776 9.63783 23.1321 8.13583 23.0703C8.13583 23.0703 7.13449 23.1321 7.07191 23.0085C7.07191 23.0085 6.91545 22.9776 6.91545 22.4217C6.91545 22.4217 6.91545 21.8967 6.88416 21.804C6.88416 21.804 6.91545 21.5261 6.41478 21.4643C6.41478 21.4643 5.72636 21.5879 5.69507 21.1864C5.69507 21.1864 5.78894 20.9084 6.47736 20.9393C6.47736 20.9393 6.97803 21.0319 6.88416 20.6305L6.94674 17.7274C6.94674 17.7274 7.00932 17.2332 6.66511 17.2023C6.66511 17.2023 6.3522 17.1715 6.25832 17.2332C6.25832 17.2332 5.69507 17.2332 5.72636 16.8935C5.72636 16.8935 5.91411 16.5538 6.50865 16.6155C6.50865 16.6155 6.94674 16.7082 6.97803 16.2141C6.97803 16.2141 6.94674 15.2258 7.19707 15.164C7.19707 15.2258 7.69774 15.2258 7.57258 15.3802Z" fill="white"/>
<path id="Vector_49" d="M8.16712 21.8349C8.16712 21.8349 8.44875 22.1129 8.88683 22.1129L11.5779 22.1437C11.5779 22.1437 11.8908 22.1746 11.8596 22.329C11.8596 22.329 11.8283 22.5761 11.4528 22.4835L8.19841 22.4526L7.8542 22.4835C7.8542 22.4835 7.60387 22.4526 7.97937 21.9893L8.16712 21.8349Z" fill="white"/>
<path id="Vector_50" d="M8.16712 21.8349C8.16712 21.8349 8.44875 22.1129 8.88683 22.1129L11.5779 22.1437C11.5779 22.1437 11.8908 22.1746 11.8596 22.329C11.8596 22.329 11.8283 22.5761 11.4528 22.4835L8.19841 22.4526L7.8542 22.4835C7.8542 22.4835 7.60387 22.4526 7.97937 21.9893L8.16712 21.8349Z" stroke="black" stroke-width="0.2305"/>
<path id="Vector_51" d="M16.4595 21.5879C16.4595 21.5879 16.7098 22.0511 16.8037 22.1129C16.8037 22.1129 17.0227 22.36 16.9601 21.9276L16.9914 16.3067C16.9914 16.3067 16.9288 16.1214 16.9914 15.8126L16.7411 15.3802C16.7411 15.3802 16.4908 15.1949 16.4908 15.5037L16.4595 21.4952V21.5879Z" fill="white"/>
<path id="Vector_52" d="M16.4595 21.5879C16.4595 21.5879 16.7098 22.0511 16.8037 22.1129C16.8037 22.1129 17.0227 22.36 16.9601 21.9276L16.9914 16.3067C16.9914 16.3067 16.9288 16.1214 16.9914 15.8126L16.7411 15.3802C16.7411 15.3802 16.4908 15.1949 16.4908 15.5037L16.4595 21.4952V21.5879Z" stroke="black" stroke-width="0.2305"/>
<path id="Vector_53" d="M12.0786 18.901C12.0786 18.901 12.1099 19.3642 12.0473 19.8275C12.016 20.0745 12.1412 21.2173 12.016 21.804C12.016 21.804 11.9848 21.9893 11.578 21.8349C11.578 21.8349 9.04332 21.8967 8.98074 21.804C8.98074 21.804 8.29232 21.8349 8.22974 21.4643C8.22974 21.4643 8.32361 18.7774 8.26103 18.6848C8.26103 18.6848 8.22974 17.2332 8.26103 17.0788C8.26103 17.0788 8.32361 15.7199 8.29232 15.5655C8.29232 15.5655 8.32361 15.2567 8.26103 15.1022C8.26103 15.1022 8.26103 14.9169 8.60524 15.0096C8.60524 15.0096 8.73041 15.2258 9.38753 15.1331C9.38753 15.1331 9.85691 15.1949 10.3263 15.164C10.3263 15.164 11.3276 15.0714 11.578 15.164C11.578 15.164 11.9848 15.0714 12.0786 15.5037L12.0473 16.7082L12.1725 17.1097L12.2977 17.017L12.3603 16.7082L12.3915 15.4111C12.3915 15.4111 12.4854 15.164 12.7983 15.1331C12.7983 15.1331 13.299 15.0714 13.3616 15.1022C13.4242 15.1331 14.5194 15.1949 14.801 15.1331C15.0826 15.0714 15.1452 15.3184 16.0527 14.886C16.0527 14.886 16.303 14.9169 16.303 15.0714C16.303 15.0714 16.2091 16.7391 16.303 17.0479C16.303 17.0479 16.303 20.1054 16.2404 20.3216L16.2717 21.3099C16.2717 21.3099 16.303 21.7423 15.6146 21.7732C15.6146 21.7732 16.0527 21.8349 13.3303 21.7423C13.3303 21.7423 12.8922 21.7114 12.4228 21.9276C12.4228 21.9276 12.329 21.8967 12.329 21.6496C12.329 21.6496 12.4228 20.7231 12.329 19.8275L12.2977 18.8392L12.0786 18.901Z" fill="white"/>
<path id="Vector_54" d="M10.295 17.5112C10.295 17.5112 10.3576 18.9627 10.295 19.148L10.2637 19.4569C10.2637 19.4569 10.3576 19.673 10.4514 19.7348C10.4514 19.7348 10.5453 20.0128 10.3263 19.9819C10.3263 19.9819 9.82559 19.951 9.70042 19.951C9.70042 19.951 9.4188 19.951 9.70042 19.6113C9.70042 19.6113 9.7943 19.4877 9.76301 19.1171C9.76301 19.1171 9.76301 17.4803 9.7943 17.3876C9.7943 17.3876 9.82559 17.1714 9.70042 17.1097L9.45009 17.1406L9.16846 17.4185C9.16846 17.4185 9.10588 17.6965 8.98071 17.3876V17.2332L9.16846 16.77L9.29363 16.7391C9.29363 16.7391 9.48138 16.8626 9.63784 16.8935H10.5766L10.9208 16.7391C10.9208 16.7391 11.046 16.77 11.0147 16.9244C11.0147 16.9244 11.0773 17.3876 10.8269 17.4185C10.8269 17.4185 10.6705 17.3568 10.5766 17.1406C10.5766 17.2023 10.3263 17.0788 10.295 17.5112Z" fill="#1E1E1E"/>
<path id="Vector_55" d="M14.6758 16.9862C14.6758 16.9862 13.9248 16.9244 13.8935 17.7274C13.8935 17.7274 13.7997 18.2833 14.6445 18.623C14.6445 18.623 15.2704 18.901 15.2078 19.2716C15.2078 19.2716 15.1139 19.951 14.4881 19.6113C14.4881 19.6113 14.1752 19.4569 14.2065 19.2716C14.2065 19.2716 14.1126 19.0554 13.9874 19.0863C13.9874 19.0863 13.8623 19.1171 13.9248 19.7657C13.9248 19.7657 13.9248 20.0128 14.2065 19.7657L14.3629 19.7966C14.3629 19.7966 14.8949 20.229 15.3643 19.7039C15.3643 19.7039 15.8649 19.2407 15.4894 18.7157C15.4894 18.7157 15.2391 18.3142 14.7697 18.1289C14.7697 18.1289 14.3316 17.9436 14.2378 17.6038C14.2378 17.6038 14.3629 17.017 14.8949 17.3259C14.8949 17.3259 15.0826 17.573 15.2078 17.6038C15.2078 17.6038 15.3643 17.6038 15.333 17.2641L15.3017 16.9862C15.3017 16.9862 15.2704 16.77 14.9888 16.9862C14.9888 16.9862 14.7384 17.0788 14.6758 16.9862Z" fill="#1E1E1E"/>
<path id="Vector_56" d="M12.2664 16.5846C12.3915 16.6773 12.4228 16.8935 12.4228 16.8935C12.8296 17.9435 13.1425 19.426 13.1425 19.426C13.2364 19.6113 13.4242 19.7657 13.4242 19.7657C13.7684 19.8892 13.4242 19.9819 13.4242 19.9819C13.299 20.0436 12.8296 19.951 12.8296 19.951C12.5793 19.9201 12.7044 19.8275 12.7044 19.8275C12.7983 19.7348 12.7357 19.3333 12.7357 19.3333C12.7044 19.1789 12.548 18.9318 12.548 18.9318C12.4541 18.9009 12.3289 19.0554 12.3289 19.0554C12.3289 19.0554 12.1099 19.148 12.0786 19.0554C12.0473 18.9627 11.9221 18.9009 11.9221 18.9009C11.6718 18.9009 11.5779 19.4877 11.5779 19.4877C11.7031 19.9819 11.5779 19.8892 11.5779 19.8892C11.4528 20.0436 11.0773 19.9201 11.0773 19.9201C10.8895 19.8892 11.0147 19.7348 11.0147 19.7348C11.2337 19.7039 11.2963 19.4568 11.2963 19.4568C11.3902 19.3333 12.016 16.7699 12.016 16.7699C12.0786 16.7082 12.1099 16.492 12.2664 16.5846ZM11.9534 17.8818C11.9221 17.9744 11.797 18.5303 11.797 18.5303L11.9221 18.7156C11.9221 18.7156 12.2351 18.7465 12.3602 18.7465C12.4854 18.7465 12.4854 18.6539 12.4854 18.5612C12.4854 18.4686 12.2664 17.8818 12.2664 17.8818L12.1725 17.7582L11.9534 17.8818Z" fill="#1E1E1E"/>
<path id="Vector_57" d="M6.88414 11.8594C6.88414 11.8594 6.6651 12.5389 5.69505 11.8285L2.37812 11.7668C2.37812 11.7668 1.94004 11.8903 1.87745 11.4579C1.87745 11.4579 1.97133 10.5623 1.90874 10.4696C1.90874 10.4696 1.94004 10.2226 1.50195 10.2226C1.50195 10.2226 0.844823 10.3152 0.813531 9.72842C0.813531 9.72842 0.688364 9.11074 1.62712 9.11074C1.62712 9.11074 1.90874 9.23428 1.94004 8.86367C1.94004 8.86367 1.90874 6.33119 1.90874 6.115C1.90874 6.115 2.00262 5.86793 1.53324 5.83705C1.53324 5.83705 0.876115 5.96058 0.813531 5.52821C0.813531 5.52821 0.782239 4.87964 1.22032 4.84876C1.22032 4.84876 1.75228 4.87964 1.84616 4.75611C1.84616 4.75611 1.97133 4.81788 1.94004 4.35462L1.97133 3.55164C1.97133 3.55164 2.03391 3.33545 2.37812 3.36633C2.37812 3.36633 3.00396 3.39722 3.06654 3.33545C3.06654 3.33545 3.19171 3.15014 3.25429 3.08838C3.25429 3.08838 3.56721 3.05749 3.62979 3.15014C3.62979 3.15014 4.09917 3.45898 5.91409 3.33545C5.91409 3.33545 6.19572 3.33545 6.2583 3.4281C6.2583 3.4281 6.60251 3.67517 6.79026 3.39722C6.79026 3.39722 7.07189 3.33545 7.97935 3.36633C7.97935 3.36633 8.9494 3.6134 9.60652 3.08838L9.82557 3.11926C9.82557 3.11926 10.1072 3.58252 10.2949 3.4281C10.2949 3.4281 10.8895 3.36633 10.9834 3.48987C10.9834 3.48987 11.1711 3.76782 11.0772 4.53992C11.0772 4.53992 10.9521 4.87964 11.5466 4.87964C11.5466 4.87964 12.2037 4.75611 12.1099 5.37379C12.1099 5.37379 12.2976 6.05323 11.2024 5.96058C11.2024 5.96058 11.0772 6.14588 11.0772 6.3003C11.0772 6.3003 11.0459 8.52395 11.0459 8.77102C11.0459 8.77102 11.0147 9.11074 11.5153 9.11074C11.5153 9.11074 12.1412 9.07986 12.1725 9.63577C12.1725 9.63577 12.2663 10.377 11.3276 10.2534C11.3276 10.2534 11.0459 10.2843 11.0147 10.4696L10.9521 11.4579C10.9521 11.4579 10.9834 11.9521 10.4201 11.8285C10.3262 11.8285 7.32222 11.8903 7.07189 11.7976C7.07189 11.7976 6.94672 11.7668 6.88414 11.8594Z" fill="#1E1E1E"/>
<path id="Vector_58" d="M6.88414 11.8594C6.88414 11.8594 6.6651 12.5389 5.69505 11.8285L2.37812 11.7668C2.37812 11.7668 1.94004 11.8903 1.87745 11.4579C1.87745 11.4579 1.97133 10.5623 1.90874 10.4696C1.90874 10.4696 1.94004 10.2226 1.50195 10.2226C1.50195 10.2226 0.844823 10.3152 0.813531 9.72842C0.813531 9.72842 0.688364 9.11074 1.62712 9.11074C1.62712 9.11074 1.90874 9.23428 1.94004 8.86367C1.94004 8.86367 1.90874 6.33119 1.90874 6.115C1.90874 6.115 2.00262 5.86793 1.53324 5.83705C1.53324 5.83705 0.876115 5.96058 0.813531 5.52821C0.813531 5.52821 0.782239 4.87964 1.22032 4.84876C1.22032 4.84876 1.75228 4.87964 1.84616 4.75611C1.84616 4.75611 1.97133 4.81788 1.94004 4.35462L1.97133 3.55164C1.97133 3.55164 2.03391 3.33545 2.37812 3.36633C2.37812 3.36633 3.00396 3.39722 3.06654 3.33545C3.06654 3.33545 3.19171 3.15014 3.25429 3.08838C3.25429 3.08838 3.56721 3.05749 3.62979 3.15014C3.62979 3.15014 4.09917 3.45898 5.91409 3.33545C5.91409 3.33545 6.19572 3.33545 6.2583 3.4281C6.2583 3.4281 6.60251 3.67517 6.79026 3.39722C6.79026 3.39722 7.07189 3.33545 7.97935 3.36633C7.97935 3.36633 8.9494 3.6134 9.60652 3.08838L9.82557 3.11926C9.82557 3.11926 10.1072 3.58252 10.2949 3.4281C10.2949 3.4281 10.8895 3.36633 10.9834 3.48987C10.9834 3.48987 11.1711 3.76782 11.0772 4.53992C11.0772 4.53992 10.9521 4.87964 11.5466 4.87964C11.5466 4.87964 12.2037 4.75611 12.1099 5.37379C12.1099 5.37379 12.2976 6.05323 11.2024 5.96058C11.2024 5.96058 11.0772 6.14588 11.0772 6.3003C11.0772 6.3003 11.0459 8.52395 11.0459 8.77102C11.0459 8.77102 11.0147 9.11074 11.5153 9.11074C11.5153 9.11074 12.1412 9.07986 12.1725 9.63577C12.1725 9.63577 12.2663 10.377 11.3276 10.2534C11.3276 10.2534 11.0459 10.2843 11.0147 10.4696L10.9521 11.4579C10.9521 11.4579 10.9834 11.9521 10.4201 11.8285C10.3262 11.8285 7.32222 11.8903 7.07189 11.7976C7.07189 11.7976 6.94672 11.7668 6.88414 11.8594Z" stroke="black" stroke-width="0.2189"/>
<path id="Vector_59" d="M3.16042 3.79871C3.16042 3.79871 3.19171 4.2002 3.19171 4.29285C3.19171 4.3855 3.12912 9.94461 3.12912 9.94461C3.12912 9.94461 3.19171 10.377 2.81621 10.5932C2.81621 10.5932 2.72233 10.6241 2.69104 10.3461L2.72233 4.47815C2.75362 4.47815 2.78492 3.76782 3.16042 3.79871Z" fill="white"/>
<path id="Vector_60" d="M3.16042 3.79871C3.16042 3.79871 3.19171 4.2002 3.19171 4.29285C3.19171 4.3855 3.12913 9.94461 3.12913 9.94461C3.12913 9.94461 3.19171 10.377 2.81621 10.5932C2.81621 10.5932 2.72233 10.6241 2.69104 10.3461L2.72233 4.47815C2.75362 4.47815 2.78492 3.76782 3.16042 3.79871Z" stroke="black" stroke-width="0.2305"/>
<path id="Vector_61" d="M2.50329 10.655C2.50329 10.655 2.53458 5.15764 2.53458 5.0341C2.50329 4.94145 2.53458 5.12676 2.53458 5.12676C2.53458 5.12676 2.472 4.16935 2.72233 3.76786C2.72233 3.76786 2.62846 3.42814 2.19037 3.86051V4.6635C2.19037 4.6635 2.19037 5.12676 1.78358 5.09587C1.78358 5.09587 1.3142 5.06499 1.09516 5.28118C1.09516 5.28118 0.969993 5.71355 1.43937 5.6209C1.43937 5.6209 2.15908 5.6209 2.19037 5.89885L2.15908 8.86371C2.15908 8.86371 2.31554 9.35785 1.75229 9.35785C1.75229 9.35785 1.09516 9.32697 1.09516 9.72846C1.09516 9.72846 1.22033 10.0682 1.81487 9.97553C1.81487 9.97553 2.22166 10.0682 2.22166 10.4388V11.18C2.22166 11.18 2.19037 11.4888 2.56587 11.4888H5.63247C5.63247 11.4888 5.78893 11.5197 5.78893 11.3035C5.78893 11.3035 5.75764 11.1491 5.53859 11.1491L2.97267 11.1182C2.97267 11.1182 2.53458 11.2418 2.50329 10.655Z" fill="white"/>
<path id="Vector_62" d="M3.0353 10.6859C3.0353 10.6859 2.94142 10.9638 3.25434 10.902H5.2883L5.85156 11.0256C5.85156 11.0256 6.41481 10.902 5.85156 10.5623C5.85156 10.5623 4.03663 10.5932 3.88017 10.5314C3.88017 10.5314 3.50467 10.4388 3.4108 10.4079C3.4108 10.4388 3.22305 10.3461 3.0353 10.6859Z" fill="white"/>
<path id="Vector_63" d="M3.0353 10.6859C3.0353 10.6859 2.94142 10.9638 3.25434 10.902H5.2883L5.85156 11.0256C5.85156 11.0256 6.41481 10.902 5.85156 10.5623C5.85156 10.5623 4.03663 10.5932 3.88017 10.5314C3.88017 10.5314 3.50467 10.4388 3.4108 10.4079C3.4108 10.4388 3.22305 10.3461 3.0353 10.6859Z" stroke="black" stroke-width="0.2305"/>
<path id="Vector_64" d="M6.41479 10.9638C6.41479 10.9638 6.03929 10.9638 6.07058 11.4579C6.07058 11.4579 6.10187 11.8285 6.50866 11.8285C6.50866 11.8285 6.85287 11.7668 6.82158 11.3653C6.82158 11.3653 6.60254 10.8711 6.41479 10.9638Z" fill="white"/>
<path id="Vector_65" d="M6.69642 10.7476C6.69642 10.7476 6.88417 10.5623 6.97805 10.5623C6.97805 10.5623 8.94943 10.7476 9.29364 10.5005C9.29364 10.5005 9.57526 10.4388 9.66914 10.5005C9.66914 10.5005 9.95077 10.7476 9.95077 10.8711C9.95077 10.8711 9.91947 11.0564 9.57526 10.9638C9.57526 10.9638 7.32226 10.9947 7.22838 10.9947C7.25967 10.9638 6.63384 11.1182 6.69642 10.7476Z" fill="white"/>
<path id="Vector_66" d="M6.69642 10.7476C6.69642 10.7476 6.88417 10.5623 6.97805 10.5623C6.97805 10.5623 8.94943 10.7476 9.29364 10.5005C9.29364 10.5005 9.57526 10.4388 9.66914 10.5005C9.66914 10.5005 9.95077 10.7476 9.95077 10.8711C9.95077 10.8711 9.91947 11.0564 9.57526 10.9638C9.57526 10.9638 7.32226 10.9947 7.22838 10.9947C7.25967 10.9638 6.63384 11.1182 6.69642 10.7476Z" stroke="black" stroke-width="0.2305"/>
<path id="Vector_67" d="M7.00934 11.3344C7.00934 11.3344 7.00934 11.18 7.29096 11.18L10.0759 11.1491C10.0759 11.1491 10.3263 11.2726 10.3263 10.8093C10.3263 10.8093 10.4201 8.67836 10.4514 6.33118C10.4514 5.62085 10.4827 4.91052 10.4514 4.23107C10.4514 4.23107 10.3889 3.95312 10.3263 3.89135C10.3263 3.89135 10.3263 3.58251 10.6705 3.70605C10.6705 3.70605 10.9521 3.73693 10.8895 4.16931L10.9208 4.84875C10.9208 4.84875 10.8582 5.12671 11.3902 5.06494C11.3902 5.06494 11.9222 5.12671 11.9534 5.3429C11.9534 5.3429 12.1099 5.74439 11.4841 5.68262H11.0147C11.0147 5.68262 10.8269 5.80615 10.8895 6.02234L10.8269 8.86366C10.8269 8.86366 10.7956 9.35781 11.265 9.32692C11.265 9.32692 11.7657 9.29604 11.8596 9.45046C11.8596 9.45046 12.2038 9.9446 11.4528 9.91372C11.4528 9.91372 10.9834 9.88283 10.8895 9.97548C10.8895 9.97548 10.8269 10.0681 10.7644 10.9947C10.7644 10.9947 10.7956 11.5506 10.3889 11.4888C10.3889 11.4888 7.63517 11.5197 7.38484 11.4579C7.32226 11.4888 7.04063 11.5506 7.00934 11.3344Z" fill="white"/>
<path id="Vector_68" d="M3.44206 3.64429L3.37948 9.91372C3.37948 9.91372 3.34818 10.1917 3.84885 10.2534C3.84885 10.2534 4.4121 10.3152 4.56856 10.2534C4.56856 10.2534 4.94407 10.2226 5.91411 10.2843C5.91411 10.2843 6.16445 10.5314 6.16445 10.2226C6.16445 10.2226 6.3209 5.1576 6.25832 4.07666C6.25832 4.07666 6.22703 3.6134 5.91411 3.6134C5.91411 3.6134 4.4121 3.73694 4.28694 3.6134L3.69239 3.45898C3.6611 3.45898 3.44206 3.48987 3.44206 3.64429Z" fill="white"/>
<path id="Vector_69" d="M9.73173 3.86048L9.70044 10.0373C9.70044 10.0373 9.8569 10.5932 10.1072 10.5314C10.1072 10.5314 10.1385 10.4079 10.1698 10.2226L10.2637 4.35463C10.2637 4.32374 10.0759 3.39723 9.73173 3.86048Z" fill="white"/>
<path id="Vector_70" d="M9.73173 3.86048L9.70044 10.0373C9.70044 10.0373 9.8569 10.5932 10.1072 10.5314C10.1072 10.5314 10.1385 10.4079 10.1698 10.2226L10.2637 4.35463C10.2637 4.32374 10.0759 3.39723 9.73173 3.86048Z" stroke="black" stroke-width="0.2305"/>
<path id="Vector_71" d="M6.57125 3.92223C6.57125 3.92223 6.50867 6.8562 6.53996 6.97974L6.50867 9.45045L6.41479 10.3152C6.41479 10.3152 6.53996 10.5005 6.63384 10.377C6.63384 10.377 7.25967 10.2225 7.66647 10.2843C7.66647 10.2843 8.94943 10.4079 9.19976 10.1917C9.19976 10.1917 9.38752 10.2843 9.4501 9.97548C9.4501 9.97548 9.54397 4.50902 9.48139 4.41637C9.48139 4.41637 9.57527 3.64427 9.51268 3.55162C9.51268 3.55162 9.48139 3.36632 9.16847 3.52074C9.16847 3.52074 9.19976 3.67516 7.32226 3.61339C7.32226 3.61339 6.60255 3.61339 6.57125 3.92223Z" fill="white"/>
<path id="Vector_72" d="M5.97669 5.7135L5.78894 6.08411C5.78894 6.08411 5.35085 7.96803 5.13181 8.36952C5.13181 8.36952 5.10052 8.77101 4.75631 8.46217C4.75631 8.46217 3.97401 6.05322 3.94272 5.99146L3.69239 5.80615C3.69239 5.80615 3.53593 5.58997 3.81756 5.55908L4.53727 5.58997C4.53727 5.58997 4.7876 5.77527 4.44339 5.99146C4.44339 5.99146 4.47468 6.3003 4.91277 7.50477C4.91277 7.50477 5.03794 7.96803 5.1631 7.6283L5.5699 6.23853L5.44473 5.83704C5.44473 5.83704 5.31956 5.65173 5.50731 5.62085C5.50731 5.62085 5.91411 5.55908 5.97669 5.7135Z" fill="#1E1E1E"/>
<path id="Vector_73" d="M7.10323 6.05324L7.07194 8.12246L7.00936 8.27688C7.00936 8.27688 6.82161 8.52395 6.94677 8.55484C6.94677 8.55484 6.75902 8.67837 8.19845 8.67837C8.19845 8.67837 8.7617 8.77102 8.60524 8.06069C8.60524 8.06069 8.54266 7.81362 8.35491 8.18423C8.35491 8.18423 8.29232 8.49307 7.57261 8.40042C7.57261 8.40042 7.41615 8.27688 7.41615 8.12246V7.25771C7.41615 7.25771 7.38486 7.04152 7.72907 7.07241C7.72907 7.07241 8.10457 7.31948 8.16715 7.19594C8.16715 7.19594 8.29232 6.8871 8.16715 6.7018C8.16715 6.7018 7.9794 6.67092 7.9794 6.76357C7.9794 6.76357 7.85424 7.01064 7.51003 6.85622C7.51003 6.85622 7.35357 6.54738 7.44744 6.30031C7.44744 6.30031 7.41615 5.80617 7.72907 5.83705C7.72907 5.83705 8.13586 5.9297 8.16715 6.02235C8.16715 6.02235 8.26103 6.26942 8.35491 5.99147L8.26103 5.65175C8.26103 5.65175 8.19845 5.52821 8.10457 5.55909C8.10457 5.55909 7.44744 5.65175 7.35357 5.58998L6.88419 5.62086C6.88419 5.62086 6.82161 5.80617 7.04065 5.89882C7.04065 5.9297 7.10323 5.96059 7.10323 6.05324Z" fill="#1E1E1E"/>
</g>
</g>
</g>
</g>
</g>
</g>
</g>
<defs>
<clipPath id="clip0_0_1">
<rect width="1440" height="194" fill="white" transform="translate(-777.978 -118)"/>
</clipPath>
<clipPath id="clip1_0_1">
<rect width="117" height="29" fill="white"/>
</clipPath>
</defs>
</svg>
