<svg preserveAspectRatio="none" width="100%" height="100%" overflow="visible" style="display: block;" viewBox="0 0 27.6656 18.3131" fill="none" xmlns="http://www.w3.org/2000/svg">
<g id="Symbol">
<path id="Vector" d="M19.8553 0C17.5868 0 15.8135 1.70195 14.2082 3.86394C12.0023 1.0661 10.1575 0 7.94974 0C3.44869 0 0 5.83494 0 12.0109C0 15.8756 1.87698 18.3131 5.02089 18.3131C7.28367 18.3131 8.91106 17.2505 11.8042 12.213C11.8042 12.213 13.0101 10.0915 13.8398 8.63021C14.1305 9.09778 14.4367 9.6016 14.7584 10.1417L16.115 12.415C18.7577 16.8202 20.2302 18.3131 22.8983 18.3131C25.9611 18.3131 27.6656 15.8423 27.6656 11.8972C27.6656 5.43079 24.1391 0 19.8553 0ZM9.59801 10.849C7.25239 14.5116 6.44093 15.3325 5.135 15.3325C3.79102 15.3325 2.99224 14.1572 2.99224 12.0614C2.99224 7.57785 5.23643 2.99325 7.9117 2.99325C9.36043 2.99325 10.5711 3.82668 12.4255 6.47115C10.6647 9.16155 9.59801 10.849 9.59801 10.849ZM18.4507 10.3879L16.8286 7.69312C16.3897 6.98198 15.9678 6.32741 15.5631 5.7294C17.025 3.48174 18.2309 2.36177 19.6651 2.36177C22.6447 2.36177 25.0284 6.73166 25.0284 12.0993C25.0284 14.1453 24.3556 15.3325 22.9617 15.3325C21.6257 15.3325 20.9874 14.4536 18.4507 10.3879Z" fill="var(--fill-0, white)"/>
</g>
</svg>
