<svg preserveAspectRatio="none" width="100%" height="100%" overflow="visible" style="display: block;" viewBox="0 0 57.745 17.7188" fill="none" xmlns="http://www.w3.org/2000/svg">
<g id="Wordmark">
<path id="Vector" d="M0 0H3.45769L9.33703 10.5939L15.2163 8.94196e-06H18.5991V17.4078H15.7781V4.06604L10.6227 13.3046H7.9764L2.82106 4.06604V17.4078H0V0Z" fill="var(--fill-0, white)"/>
<path id="Vector_2" d="M27.6983 17.7188C26.3917 17.7188 25.2433 17.4307 24.2531 16.8546C23.2627 16.2785 22.4909 15.4806 21.9375 14.461C21.384 13.4414 21.1074 12.2726 21.1075 10.9546C21.1075 9.62006 21.3779 8.43881 21.9188 7.41085C22.4597 6.38311 23.2108 5.57901 24.1719 4.99855C25.1332 4.41846 26.2379 4.12833 27.4861 4.12817C28.726 4.12817 29.7932 4.42036 30.6879 5.00474C31.5823 5.58928 32.2709 6.40788 32.7537 7.46056C33.2363 8.51339 33.4776 9.74853 33.4777 11.166V11.9368H23.9036C24.0784 12.998 24.509 13.8332 25.1956 14.4423C25.8821 15.0516 26.7496 15.3562 27.7981 15.3562C28.6386 15.3562 29.3626 15.2318 29.9701 14.9832C30.5775 14.7345 31.1476 14.3573 31.6803 13.8517L33.1782 15.6795C31.6884 17.0391 29.8618 17.7189 27.6983 17.7188ZM29.7579 7.39211C29.167 6.79122 28.3931 6.49072 27.4362 6.49062C26.5041 6.49062 25.7239 6.79736 25.0957 7.41085C24.4673 8.02429 24.0699 8.84909 23.9036 9.88525H30.7691C30.6858 8.82416 30.3487 7.99312 29.7579 7.39211Z" fill="var(--fill-0, white)"/>
<path id="Vector_3" d="M36.8991 6.73941H34.3026V4.43906H36.8991V0.634241H39.6202V4.43906H43.5647V6.73941H39.6202V12.571C39.6202 13.5408 39.7867 14.2329 40.1195 14.6474C40.4523 15.062 41.0223 15.2693 41.8297 15.2691C42.1874 15.2691 42.4911 15.2546 42.7409 15.2256C42.9906 15.1967 43.2652 15.1573 43.5647 15.1075V17.3829C43.2229 17.4814 42.8746 17.5562 42.5225 17.6068C42.1195 17.6659 41.7127 17.6949 41.3054 17.6938C38.3677 17.6938 36.8989 16.094 36.8991 12.8943V6.73941Z" fill="var(--fill-0, white)"/>
<path id="Vector_4" d="M57.745 17.4078H55.0737V15.5924C54.5993 16.2722 53.996 16.7965 53.2637 17.1653C52.5314 17.5341 51.6992 17.7185 50.7672 17.7187C49.6188 17.7187 48.6015 17.4265 47.7152 16.842C46.8289 16.2576 46.132 15.4536 45.6244 14.4299C45.1167 13.4061 44.8629 12.2352 44.8629 10.9172C44.8629 9.59096 45.1209 8.41797 45.6369 7.39828C46.1527 6.37879 46.8663 5.57887 47.7776 4.99851C48.6888 4.41842 49.7353 4.1283 50.9169 4.12814C51.8074 4.12814 52.6063 4.30017 53.3136 4.64423C54.0115 4.98047 54.6158 5.48212 55.0737 6.10518V4.43906H57.745V17.4078ZM55.0238 8.97751C54.7324 8.23974 54.2726 7.65737 53.6444 7.23041C53.016 6.80356 52.2899 6.59014 51.4662 6.59014C50.301 6.59014 49.3732 6.97972 48.6826 7.75889C47.9918 8.53812 47.6464 9.5909 47.6466 10.9172C47.6466 12.2519 47.9794 13.3089 48.6452 14.088C49.3108 14.8672 50.2137 15.2568 51.3539 15.2567C52.1943 15.2567 52.9432 15.0412 53.6008 14.6101C54.258 14.1793 54.7324 13.599 55.0238 12.8693V8.97751Z" fill="var(--fill-0, white)"/>
</g>
</svg>
