<svg width="126" height="27" viewBox="0 0 126 27" fill="none" xmlns="http://www.w3.org/2000/svg">
<g id="Desktop">
<g id="Main">
<g id="Section - Social proof logos" clip-path="url(#clip0_0_1)">
<g id="Container">
<g id="Vector">
<path d="M126 12.2143V9.99011H123.248V6.53239L123.156 6.56102L120.571 7.35476L120.52 7.3703V9.99023H116.441V8.5307C116.441 7.8511 116.592 7.33103 116.89 6.98419C117.187 6.64152 117.61 6.4673 118.151 6.4673C118.54 6.4673 118.942 6.55918 119.347 6.74037L119.448 6.78588V4.44354L119.401 4.42592C119.023 4.28963 118.509 4.221 117.872 4.221C117.07 4.221 116.34 4.39632 115.704 4.74376C115.068 5.0917 114.567 5.58841 114.217 6.21993C113.867 6.85072 113.69 7.57926 113.69 8.38549V9.99011H111.774V12.2143H113.69V21.5842H116.441V12.2143H120.52V18.1687C120.52 20.621 121.672 21.8638 123.945 21.8638C124.319 21.8638 124.712 21.8199 125.113 21.7339C125.522 21.6455 125.8 21.5573 125.964 21.4631L126 21.4416V19.1969L125.888 19.2711C125.739 19.371 125.553 19.4526 125.335 19.5132C125.116 19.575 124.933 19.606 124.792 19.606C124.259 19.606 123.865 19.462 123.621 19.1778C123.374 18.891 123.248 18.3895 123.248 17.688V12.2143H126ZM105.631 19.6063C104.633 19.6063 103.846 19.2741 103.291 18.6195C102.733 17.9617 102.45 17.0239 102.45 15.8323C102.45 14.6028 102.733 13.6406 103.291 12.9712C103.846 12.3061 104.626 11.9686 105.609 11.9686C106.563 11.9686 107.322 12.291 107.866 12.9273C108.412 13.5669 108.69 14.5214 108.69 15.7651C108.69 17.0241 108.429 17.9912 107.914 18.6381C107.404 19.2802 106.636 19.6063 105.631 19.6063ZM105.754 9.71081C103.849 9.71081 102.336 10.271 101.257 11.3759C100.179 12.4808 99.6328 14.01 99.6328 15.9212C99.6328 17.7365 100.166 19.1966 101.219 20.2604C102.271 21.3245 103.703 21.8635 105.475 21.8635C107.321 21.8635 108.804 21.2955 109.882 20.1754C110.96 19.0564 111.507 17.5417 111.507 15.6752C111.507 13.8315 110.994 12.3605 109.983 11.3038C108.971 10.2467 107.548 9.71081 105.754 9.71081ZM95.1979 9.71081C93.9023 9.71081 92.8305 10.0435 92.0118 10.6993C91.1881 11.3591 90.7702 12.2244 90.7702 13.2715C90.7702 13.8158 90.8604 14.2993 91.0379 14.7094C91.2165 15.1208 91.4928 15.4831 91.8599 15.7871C92.2242 16.0887 92.7866 16.4046 93.5318 16.726C94.1583 16.9847 94.6255 17.2036 94.9223 17.3761C95.2124 17.5452 95.4183 17.7151 95.5346 17.8806C95.6475 18.0426 95.7048 18.2643 95.7048 18.5378C95.7048 19.3168 95.1237 19.6958 93.9278 19.6958C93.4843 19.6958 92.9783 19.6028 92.4241 19.4195C91.8738 19.239 91.3545 18.9747 90.8842 18.6358L90.77 18.5536V21.2117L90.8119 21.2313C91.2011 21.4116 91.6918 21.5637 92.2702 21.6833C92.8474 21.8031 93.3719 21.864 93.8275 21.864C95.2335 21.864 96.3657 21.5298 97.1918 20.87C98.0232 20.2057 98.4446 19.3199 98.4446 18.2366C98.4446 17.4551 98.2178 16.7849 97.7707 16.2444C97.3267 15.7083 96.556 15.2161 95.4811 14.7811C94.6247 14.4361 94.0761 14.1497 93.8497 13.9299C93.6315 13.7175 93.5208 13.4171 93.5208 13.0368C93.5208 12.6996 93.6575 12.4295 93.9382 12.2107C94.2211 11.9909 94.6149 11.8791 95.1088 11.8791C95.5671 11.8791 96.036 11.9517 96.5023 12.0941C96.9683 12.2365 97.3776 12.4273 97.7193 12.6606L97.8316 12.7376V10.2162L97.7885 10.1976C97.4733 10.0619 97.0576 9.94582 96.5528 9.85162C96.0503 9.75803 95.5944 9.71081 95.1979 9.71081ZM83.5995 19.6063C82.6014 19.6063 81.814 19.2741 81.2594 18.6195C80.7012 17.9617 80.4189 17.0241 80.4189 15.8323C80.4189 14.6028 80.7016 13.6406 81.26 12.9712C81.8146 12.3061 82.5941 11.9686 83.5775 11.9686C84.5309 11.9686 85.2901 12.291 85.8341 12.9273C86.3807 13.5669 86.658 14.5214 86.658 15.7651C86.658 17.0241 86.3971 17.9912 85.8827 18.6381C85.3719 19.2802 84.6041 19.6063 83.5995 19.6063ZM83.7222 9.71081C81.8169 9.71081 80.304 10.271 79.2259 11.3759C78.1479 12.4808 77.601 14.01 77.601 15.9212C77.601 17.7372 78.1349 19.1966 79.1872 20.2604C80.2396 21.3245 81.6717 21.8635 83.4435 21.8635C85.2896 21.8635 86.7727 21.2955 87.8509 20.1754C88.9288 19.0564 89.4752 17.5417 89.4752 15.6752C89.4752 13.8315 88.9626 12.3605 87.951 11.3038C86.939 10.2467 85.5161 9.71081 83.7222 9.71081ZM73.4257 11.998V9.99011H70.7086V21.584H73.4257V15.6533C73.4257 14.6448 73.6535 13.8163 74.103 13.1905C74.5468 12.5722 75.1382 12.2589 75.8602 12.2589C76.105 12.2589 76.3797 12.2994 76.6772 12.3795C76.9717 12.4592 77.185 12.5457 77.3108 12.6367L77.425 12.7198V9.97029L77.381 9.95133C77.128 9.84342 76.77 9.78898 76.3171 9.78898C75.6342 9.78898 75.0232 10.0092 74.4998 10.4428C74.0405 10.8239 73.7084 11.3464 73.4546 11.998H73.4257ZM65.8427 9.71081C64.5962 9.71081 63.4843 9.9791 62.5386 10.508C61.591 11.0381 60.8581 11.7949 60.3594 12.7572C59.863 13.7172 59.6109 14.8386 59.6109 16.0892C59.6109 17.1846 59.8553 18.1899 60.3383 19.0759C60.8216 19.9633 61.5056 20.6576 62.3715 21.1392C63.2362 21.6201 64.2355 21.8639 65.342 21.8639C66.6333 21.8639 67.7357 21.6048 68.6197 21.0938L68.6554 21.0732V18.5746L68.5412 18.6583C68.1408 18.9511 67.6933 19.1848 67.2119 19.3531C66.7317 19.5213 66.2938 19.6063 65.9099 19.6063C64.8437 19.6063 63.9879 19.2715 63.3666 18.6114C62.744 17.9503 62.4283 17.0221 62.4283 15.8542C62.4283 14.6788 62.7575 13.7268 63.4063 13.0243C64.0532 12.3239 64.9107 11.9686 65.9547 11.9686C66.8478 11.9686 67.7181 12.2721 68.5414 12.8716L68.6554 12.9547V10.322L68.6186 10.3012C68.3087 10.1271 67.8862 9.98338 67.3616 9.87438C66.8391 9.76561 66.3282 9.71081 65.8427 9.71081ZM57.7396 9.99023H55.0225V21.584H57.7396V9.99023ZM56.4088 5.05121C55.9616 5.05121 55.5716 5.20401 55.2511 5.5068C54.9294 5.81045 54.7662 6.19277 54.7662 6.64396C54.7662 7.08806 54.9274 7.4634 55.2461 7.75898C55.5628 8.0537 55.9541 8.20308 56.4089 8.20308C56.8637 8.20308 57.2564 8.0537 57.5769 7.75947C57.8994 7.4634 58.063 7.08818 58.063 6.64396C58.063 6.20855 57.9038 5.83015 57.5902 5.51904C57.2768 5.20854 56.8792 5.05121 56.4088 5.05121ZM49.6295 9.13482V21.584H52.4024V5.40612H48.5646L43.6864 17.4226L38.9525 5.40612H34.9584V21.5839H37.5642V9.1336H37.6536L42.6526 21.584H44.6191L49.54 9.13482H49.6295Z" fill="white"/>
<path d="M12.782 12.8296H0V0H12.782V12.8296Z" fill="white"/>
<path d="M26.8948 12.8296H14.113V0H26.8948V12.8296Z" fill="white"/>
<path d="M12.7817 27H0V14.1705H12.7817V27Z" fill="white"/>
<path d="M26.8948 27H14.113V14.1705H26.8948V27Z" fill="white"/>
</g>
</g>
</g>
</g>
</g>
<defs>
<clipPath id="clip0_0_1">
<rect width="1440" height="194" fill="white" transform="translate(-1020.98 -119)"/>
</clipPath>
</defs>
</svg>
