<svg preserveAspectRatio="none" width="100%" height="100%" overflow="visible" style="display: block;" viewBox="0 0 95 23" fill="none" xmlns="http://www.w3.org/2000/svg">
<g id="MIT_Logo_0 1" clip-path="url(#clip0_0_88)">
<path id="Vector" d="M44.9341 0L45.739 3.00369C45.8346 3.38859 45.9303 3.77338 45.994 4.09135C46.0339 4.27535 46.0658 4.45107 46.0977 4.61851H46.1136C46.1455 4.45119 46.1774 4.27547 46.2173 4.09135C46.281 3.77338 46.3608 3.38859 46.4643 3.00369L47.269 0H48.9188V5.98218H47.843V2.55185C47.843 2.3092 47.843 2.00801 47.8669 1.74869C47.8749 1.60643 47.8829 1.4559 47.8908 1.31365H47.8748C47.8509 1.4559 47.8191 1.58965 47.7951 1.72362C47.7393 1.95788 47.6835 2.22559 47.6277 2.45157L46.6474 5.98207H45.5398L44.5835 2.45157C44.5198 2.22571 44.4719 1.95799 44.4161 1.72362C44.3922 1.58976 44.3604 1.4559 44.3364 1.31365H44.3205C44.3285 1.4559 44.3364 1.60643 44.3444 1.74869C44.3524 2.00801 44.3683 2.3092 44.3683 2.55185V5.98218H43.3083V0H44.9341ZM52.1069 5.50528H52.0909C51.9899 5.67813 51.8468 5.81964 51.6765 5.91525C51.4299 6.03572 51.1596 6.09306 50.8878 6.08258C50.0429 6.08258 49.4611 5.63074 49.4611 4.76905C49.4611 4.30054 49.6364 3.98256 49.9393 3.77338C50.2422 3.56419 50.6404 3.4554 51.1029 3.38847C51.7883 3.28808 52.0912 3.22954 52.0912 2.90317C52.0912 2.5852 51.8681 2.39281 51.4058 2.39281C50.8958 2.39281 50.6486 2.5768 50.6171 2.99517H49.6531C49.6554 2.80659 49.6965 2.62075 49.7735 2.45035C49.8505 2.27996 49.9617 2.12904 50.0994 2.0079C50.3863 1.74858 50.8167 1.58125 51.4139 1.58125C52.6408 1.58125 53.1354 2.15016 53.1354 3.16262V5.34635C53.1354 5.67261 53.1833 5.86512 53.2789 5.94044V5.9823H52.2348C52.1612 5.8343 52.1176 5.67186 52.1069 5.50528ZM51.8678 5.02838C51.9443 4.95857 52.0059 4.87252 52.0485 4.77591C52.0911 4.6793 52.1137 4.57431 52.1148 4.46786V3.82387C51.9235 3.94933 51.6366 4.00787 51.3576 4.07491C50.7838 4.20877 50.5128 4.34263 50.5128 4.74421C50.5128 5.14579 50.7678 5.28804 51.1503 5.28804C51.4122 5.29957 51.6684 5.20682 51.8679 5.02838H51.8678ZM53.5174 4.59333H54.5216C54.5934 5.0953 54.9201 5.30449 55.4142 5.30449C55.8924 5.30449 56.1634 5.11209 56.1634 4.81091C56.1634 4.61012 56.0279 4.49293 55.8366 4.41772C55.5908 4.34225 55.3405 4.28355 55.0874 4.242C54.7129 4.16668 54.3622 4.08307 54.0912 3.89056C53.8123 3.69817 53.6369 3.41366 53.6369 2.94515C53.6279 2.7432 53.6678 2.54215 53.7528 2.36075C53.8378 2.17934 53.9652 2.02349 54.1231 1.90774C54.426 1.68188 54.8324 1.57309 55.3027 1.57309C56.3945 1.57309 56.9684 2.11692 57.0561 2.9954H56.0757C56.02 2.52689 55.757 2.36785 55.287 2.36785C54.8566 2.36785 54.5859 2.52678 54.5859 2.84475C54.5859 3.03715 54.7214 3.12926 54.9365 3.19619C55.1437 3.27152 55.4226 3.30498 55.7095 3.37191C56.0522 3.44724 56.4106 3.53084 56.6899 3.72335C56.9688 3.92414 57.1521 4.22533 57.1521 4.7273C57.1571 4.92413 57.1161 5.11924 57.0327 5.29563C56.9494 5.47201 56.8262 5.62433 56.674 5.7393C56.3064 5.99555 55.8716 6.12427 55.4306 6.1073C54.2348 6.10765 53.5812 5.51367 53.5174 4.59333ZM57.3906 4.59333H58.3948C58.4666 5.0953 58.7934 5.30449 59.2875 5.30449C59.7657 5.30449 60.0367 5.11209 60.0367 4.81091C60.0367 4.61012 59.9012 4.49293 59.7099 4.41772C59.4641 4.34225 59.2138 4.28355 58.9607 4.242C58.5862 4.16668 58.2356 4.08307 57.9645 3.89056C57.6856 3.69817 57.5102 3.41366 57.5102 2.94515C57.5012 2.7432 57.5411 2.54215 57.6261 2.36075C57.7111 2.17934 57.8385 2.02349 57.9964 1.90774C58.2993 1.68188 58.7057 1.57309 59.1759 1.57309C60.2677 1.57309 60.8416 2.11692 60.9293 2.9954H59.949C59.8932 2.52689 59.6302 2.36785 59.1602 2.36785C58.7298 2.36785 58.4591 2.52678 58.4591 2.84475C58.4591 3.03715 58.5946 3.12926 58.8097 3.19619C59.0169 3.27152 59.2958 3.30498 59.5827 3.37191C59.9254 3.44724 60.2838 3.53084 60.5631 3.72335C60.8421 3.92414 61.0254 4.22533 61.0254 4.7273C61.0303 4.92413 60.9893 5.11924 60.906 5.29563C60.8226 5.47201 60.6994 5.62433 60.5472 5.7393C60.1796 5.99555 59.7448 6.12426 59.3038 6.1073C58.108 6.10765 57.4546 5.51367 57.3911 4.59333H57.3906ZM63.9657 5.50528H63.9497C63.8487 5.67813 63.7056 5.81964 63.5353 5.91525C63.2887 6.03572 63.0184 6.09306 62.7465 6.08258C61.9017 6.08258 61.3199 5.63074 61.3199 4.76905C61.3199 4.30054 61.4952 3.98256 61.7981 3.77338C62.101 3.56419 62.4992 3.4554 62.9617 3.38847C63.6471 3.28808 63.95 3.22954 63.95 2.90317C63.95 2.5852 63.7269 2.39281 63.2646 2.39281C62.7545 2.39281 62.5074 2.5768 62.4759 2.99517H61.5119C61.5142 2.80659 61.5552 2.62075 61.6323 2.45035C61.7093 2.27996 61.8204 2.12904 61.9581 2.0079C62.245 1.74858 62.6754 1.58125 63.2727 1.58125C64.4996 1.58125 64.9942 2.15016 64.9942 3.16262V5.34635C64.9942 5.67261 65.0421 5.86512 65.1377 5.94044V5.9823H64.0936C64.0201 5.83429 63.9766 5.67185 63.9659 5.50528H63.9657ZM63.7265 5.02838C63.8031 4.95857 63.8647 4.87252 63.9073 4.77591C63.9498 4.6793 63.9724 4.57431 63.9736 4.46786V3.82387C63.7823 3.94933 63.4954 4.00787 63.2164 4.07491C62.6426 4.20877 62.3716 4.34263 62.3716 4.74421C62.3716 5.14579 62.6266 5.28804 63.0091 5.28804C63.271 5.2996 63.5273 5.20685 63.7268 5.02838H63.7265ZM65.9979 5.44675C65.6185 5.00821 65.4157 4.43246 65.4319 3.84031C65.4181 3.24761 65.6173 2.67116 65.9899 2.22559C66.1786 2.01255 66.4085 1.84416 66.6641 1.73163C66.9197 1.6191 67.1952 1.56501 67.4722 1.57297C67.9325 1.55858 68.3832 1.71235 68.7475 2.00801C69.0661 2.30096 69.2728 2.70524 69.3293 3.14594H68.269C68.2429 2.95856 68.1522 2.78775 68.0141 2.6659C67.876 2.54406 67.7001 2.47966 67.5198 2.48492C66.8582 2.48492 66.5315 2.99529 66.5315 3.84031C66.5315 4.66026 66.8344 5.1957 67.5038 5.1957C67.9501 5.1957 68.253 4.96145 68.3247 4.46775H69.3688C69.3419 4.91122 69.1502 5.32586 68.8349 5.62235C68.4722 5.94977 68.0059 6.12288 67.5278 6.10765C67.2428 6.1168 66.9593 6.06266 66.6957 5.94876C66.4321 5.83487 66.1943 5.6638 65.9981 5.44675H65.9979ZM70.8994 2.25066C71.2023 1.79066 71.5211 1.57297 72.0869 1.57297C72.2778 1.56704 72.4677 1.60432 72.6438 1.68228C72.8198 1.76025 72.9778 1.87707 73.1069 2.0248C73.369 2.34551 73.5082 2.75701 73.4975 3.17941V5.9823H72.4135V3.3465C72.4135 2.87799 72.1665 2.56002 71.7042 2.56002C71.226 2.56002 70.8754 2.9532 70.8754 3.54729V5.98195H69.7916V0H70.8762V2.25066H70.8994ZM76.7015 5.48021H76.6776C76.5512 5.68226 76.3764 5.84584 76.1708 5.95452C75.9651 6.0632 75.7359 6.11315 75.506 6.09937C74.5894 6.09937 74.0874 5.50539 74.0874 4.55158V1.6905H75.1633V4.3585C75.1633 4.86047 75.3705 5.13659 75.8408 5.13659C76.3508 5.13659 76.6617 4.73501 76.6617 4.16611V1.6905H77.7457V5.98264H76.7016L76.7015 5.48021ZM78.1441 4.59333H79.1483C79.22 5.0953 79.5468 5.30449 80.041 5.30449C80.5191 5.30449 80.7902 5.11209 80.7902 4.81091C80.7902 4.61012 80.6547 4.49293 80.4634 4.41772C80.2175 4.34225 79.9673 4.28355 79.7142 4.242C79.3397 4.16668 78.989 4.08307 78.718 3.89056C78.439 3.69817 78.2637 3.41366 78.2637 2.94515C78.2547 2.7432 78.2946 2.54215 78.3796 2.36075C78.4646 2.17934 78.592 2.02349 78.7499 1.90774C79.0528 1.68188 79.4592 1.57309 79.9294 1.57309C81.0212 1.57309 81.5951 2.11692 81.6827 2.9954H80.7024C80.6467 2.52689 80.3836 2.36785 79.9137 2.36785C79.4833 2.36785 79.2126 2.52678 79.2126 2.84475C79.2126 3.03715 79.3481 3.12926 79.5631 3.19619C79.7704 3.27152 80.0493 3.30498 80.3362 3.37191C80.6789 3.44724 81.0373 3.53084 81.3165 3.72335C81.5954 3.92414 81.7788 4.22533 81.7788 4.7273C81.7837 4.92413 81.7428 5.11924 81.6594 5.29563C81.5761 5.47201 81.4529 5.62433 81.3006 5.7393C80.9331 5.99555 80.4982 6.12427 80.0573 6.1073C78.8615 6.10765 78.2078 5.51367 78.1441 4.59333ZM82.607 5.44675C82.2403 5.04517 82.0571 4.46787 82.0571 3.83203C82.0445 3.24053 82.2468 2.66619 82.623 2.22559C82.8073 2.01572 83.0318 1.84909 83.2818 1.73663C83.5318 1.62416 83.8016 1.56839 84.0735 1.57297C84.7349 1.57297 85.2291 1.83229 85.5718 2.29252C85.9146 2.75275 86.0899 3.38859 86.0899 4.15828H83.1251C83.2128 4.82758 83.5475 5.22916 84.1692 5.22916C84.5996 5.22916 84.8386 5.02837 84.9579 4.702H86.0263C85.952 5.0939 85.7454 5.44447 85.4445 5.68928C85.0791 5.97462 84.6326 6.12204 84.1773 6.10765C83.4918 6.10765 82.9736 5.85661 82.607 5.44675ZM83.141 3.3718H84.9583C84.9264 2.8198 84.5916 2.4518 84.0896 2.4518C83.5157 2.45146 83.2366 2.80278 83.141 3.3718ZM86.7913 1.6905V0.35144H87.8513V1.6905H88.5524V2.48526H87.8513V4.71914C87.8513 5.04539 88.0107 5.14579 88.2578 5.14579H88.4651C88.5024 5.14716 88.5398 5.14435 88.5766 5.1374V5.97402C88.5184 5.98118 88.4598 5.98399 88.4013 5.98241C88.2818 5.99081 88.1144 5.99081 87.8992 5.99081C87.635 6.00319 87.3735 5.93017 87.1501 5.78162C86.9349 5.62269 86.7914 5.36326 86.7914 4.96168V2.48492H86.2256V1.6905H86.7913ZM89.3098 1.6905V0.35144H90.3697V1.6905H91.0708V2.48526H90.3697V4.71914C90.3697 5.04539 90.5291 5.14579 90.7762 5.14579H90.9834C91.0208 5.14716 91.0582 5.14435 91.095 5.1374V5.97402C91.0369 5.98118 90.9783 5.98399 90.9198 5.98241C90.8002 5.99081 90.6329 5.99081 90.4177 5.99081C90.1535 6.00319 89.892 5.93017 89.6685 5.78162C89.4534 5.62269 89.3099 5.36326 89.3099 4.96168V2.48492H88.7441V1.6905H89.3098ZM91.3658 4.59368H92.37C92.4418 5.09565 92.7686 5.30483 93.2626 5.30483C93.7408 5.30483 94.0118 5.11244 94.0118 4.81126C94.0118 4.61047 93.8763 4.49328 93.685 4.41807C93.4392 4.34259 93.1889 4.28389 92.9358 4.24235C92.5613 4.16702 92.2106 4.08342 91.9396 3.89091C91.6607 3.69851 91.4853 3.41401 91.4853 2.9455C91.4763 2.74355 91.5162 2.5425 91.6012 2.36109C91.6862 2.17969 91.8136 2.02384 91.9715 1.90808C92.2744 1.68222 92.6808 1.57343 93.1511 1.57343C94.2429 1.57343 94.8168 2.11727 94.9045 2.99575H93.9246C93.8688 2.52724 93.6058 2.3682 93.1359 2.3682C92.7055 2.3682 92.4348 2.52713 92.4348 2.8451C92.4348 3.0375 92.5703 3.12961 92.7853 3.19654C92.9926 3.27187 93.2715 3.30533 93.5584 3.37226C93.901 3.44759 94.2595 3.53119 94.5386 3.7237C94.8176 3.92449 95.0009 4.22567 95.0009 4.72765C95.0058 4.92448 94.9648 5.11958 94.8815 5.29597C94.7981 5.47236 94.675 5.62468 94.5227 5.73965C94.1552 5.99589 93.7203 6.1246 93.2794 6.10765C92.083 6.10765 91.4295 5.51367 91.3657 4.59333L91.3658 4.59368ZM44.4639 7.77687V13.7591H43.3083V7.77687H44.4639ZM46.2969 10.0526C46.4158 9.82801 46.5924 9.64301 46.8066 9.51875C47.0208 9.39448 47.264 9.33595 47.5084 9.34984C47.6994 9.34385 47.8894 9.38109 48.0655 9.45903C48.2415 9.53698 48.3996 9.6538 48.5288 9.80156C48.7909 10.1223 48.9301 10.5338 48.9193 10.9562V13.7591H47.8354V11.1235C47.8354 10.655 47.5884 10.337 47.1261 10.337C46.6479 10.337 46.2972 10.7303 46.2972 11.3243V13.7589H45.2134V9.46691H46.2734V10.0526H46.2969ZM49.2855 12.3702H50.2898C50.3615 12.8722 50.6883 13.0814 51.1823 13.0814C51.6605 13.0814 51.9315 12.889 51.9315 12.5878C51.9315 12.387 51.796 12.2698 51.6047 12.1946C51.3589 12.1191 51.1086 12.0604 50.8556 12.0189C50.481 11.9436 50.1304 11.8599 49.8593 11.6674C49.5803 11.475 49.4051 11.1905 49.4051 10.722C49.3961 10.5201 49.4359 10.319 49.5209 10.1376C49.606 9.95622 49.7333 9.80037 49.8912 9.68461C50.1941 9.45875 50.6005 9.34996 51.0708 9.34996C52.1627 9.34996 52.7365 9.89379 52.8242 10.7723H51.8439C51.7881 10.3038 51.5251 10.1447 51.0552 10.1447C50.6247 10.1447 50.3541 10.3037 50.3541 10.6216C50.3541 10.814 50.4896 10.9061 50.7046 10.9731C50.9119 11.0484 51.1908 11.0819 51.4777 11.1488C51.8203 11.2241 52.1788 11.3077 52.458 11.5002C52.7369 11.701 52.9203 12.0022 52.9203 12.5042C52.9252 12.701 52.8842 12.8961 52.8009 13.0725C52.7175 13.2489 52.5944 13.4012 52.4421 13.5162C52.0746 13.7724 51.6397 13.9011 51.1988 13.8842C50.0029 13.8845 49.3493 13.2905 49.2855 12.3702ZM53.6052 9.46703V8.1282H54.6651V9.46691H55.3662V10.2617H54.6651V12.4956C54.6651 12.8218 54.8245 12.9222 55.0716 12.9222H55.2788C55.3162 12.9236 55.3536 12.9208 55.3904 12.9138V13.7504C55.3323 13.7576 55.2737 13.7604 55.2152 13.7588C55.0956 13.7672 54.9283 13.7672 54.7131 13.7672C54.4489 13.7796 54.1874 13.7066 53.9639 13.558C53.7488 13.3991 53.6053 13.1397 53.6053 12.7381V10.2617H53.0395V9.46691L53.6052 9.46703ZM56.9603 7.93592V8.95666H55.8765V7.93592H56.9603ZM56.9603 9.46703V13.7592H55.8765V9.46691L56.9603 9.46703ZM57.9407 9.46703V8.1282H59.0006V9.46691H59.7025V10.2617H59.0014V12.4956C59.0014 12.8218 59.1608 12.9222 59.4079 12.9222H59.6148C59.6522 12.9236 59.6896 12.9208 59.7265 12.9138V13.7504C59.6683 13.7576 59.6097 13.7604 59.5512 13.7588C59.4317 13.7672 59.2643 13.7672 59.049 13.7672C58.7848 13.7796 58.5233 13.7066 58.2999 13.558C58.0847 13.3991 57.9412 13.1397 57.9412 12.7381V10.2617H57.3753V9.46691L57.9407 9.46703ZM62.7942 13.2571H62.7698C62.6434 13.4592 62.4685 13.6229 62.2627 13.7315C62.057 13.8402 61.8276 13.8901 61.5976 13.8762C60.6812 13.8762 60.179 13.2822 60.179 12.3285V9.46691H61.255V12.1358C61.255 12.6378 61.4621 12.9139 61.9324 12.9139C62.4424 12.9139 62.7533 12.5123 62.7533 11.9434V9.46691H63.8372V13.7591H62.7931L62.7942 13.2571ZM64.8186 9.46703V8.1282H65.8786V9.46691H66.5797V10.2617H65.8786V12.4956C65.8786 12.8218 66.038 12.9222 66.285 12.9222H66.4922C66.5296 12.9238 66.567 12.9212 66.6039 12.9145V13.7511C66.5457 13.7583 66.4871 13.7611 66.4286 13.7595C66.3091 13.7679 66.1417 13.7679 65.9264 13.7679C65.6622 13.7803 65.4007 13.7073 65.1773 13.5587C64.9621 13.3998 64.8186 13.1404 64.8186 12.7388V10.2617H64.2527V9.46691L64.8186 9.46703ZM67.4008 13.2236C67.0342 12.822 66.8509 12.2447 66.8509 11.6089C66.8383 11.0174 67.0407 10.4431 67.4168 10.0025C67.6012 9.7926 67.8257 9.62598 68.0756 9.51351C68.3256 9.40104 68.5954 9.34527 68.8673 9.34984C69.5287 9.34984 70.0229 9.60917 70.3657 10.0694C70.7084 10.5296 70.8837 11.1655 70.8837 11.9352H67.9184C68.0061 12.6045 68.3408 13.006 68.9625 13.006C69.3929 13.006 69.6319 12.8052 69.7512 12.4789H70.8192C70.7448 12.8708 70.5382 13.2213 70.2374 13.4662C69.8719 13.7515 69.4254 13.8989 68.9702 13.8845C68.2854 13.8845 67.7675 13.6335 67.4008 13.2235V13.2236ZM67.9347 11.1487H69.7519C69.72 10.5967 69.3852 10.2287 68.8832 10.2287C68.3094 10.2282 68.0304 10.58 67.9347 11.1486V11.1487ZM73.0274 13.2236C72.8317 13.0105 72.6782 12.7588 72.5756 12.4831C72.473 12.2074 72.4234 11.9131 72.4297 11.6172C72.4185 11.0173 72.6333 10.437 73.0274 10.0025C73.2283 9.78993 73.4683 9.62245 73.7327 9.51021C73.9971 9.39796 74.2805 9.34329 74.5657 9.3495C74.8519 9.34406 75.1362 9.39903 75.4018 9.51114C75.6674 9.62324 75.9088 9.79021 76.1118 10.0021C76.5004 10.4397 76.7118 11.0187 76.7016 11.6168C76.7133 12.2128 76.5015 12.7897 76.1118 13.2233C75.9104 13.438 75.6694 13.6073 75.4036 13.721C75.1377 13.8346 74.8526 13.8902 74.5657 13.8843C74.2798 13.8911 73.9956 13.8359 73.7309 13.7222C73.4663 13.6085 73.2268 13.4387 73.0274 13.2235V13.2236ZM75.6017 11.6172C75.6017 10.7722 75.2351 10.2115 74.5657 10.2115C73.8962 10.2115 73.5296 10.7722 73.5296 11.6172C73.5296 12.4538 73.8962 13.0144 74.5657 13.0144C75.2351 13.0144 75.6017 12.4538 75.6017 11.6172ZM77.3949 9.46668V9.08178C77.3949 8.55473 77.5862 8.2033 77.9129 7.99411C78.2317 7.79332 78.686 7.72639 79.212 7.78493V8.66341C78.702 8.63834 78.4789 8.69687 78.4789 9.14871V9.46668H79.2126V10.2866H78.4786V13.7588H77.3948V10.2869H76.8369V9.46691L77.3949 9.46668ZM46.1774 15.5536V16.5744H44.4639V21.5358H43.3083V16.5744H41.5946V15.5536H46.1774ZM46.0579 21.0004C45.6912 20.5988 45.508 20.0215 45.508 19.3857C45.4954 18.7942 45.6978 18.2198 46.0739 17.7792C46.2583 17.5694 46.4828 17.4027 46.7327 17.2903C46.9827 17.1778 47.2525 17.122 47.5244 17.1266C48.1858 17.1266 48.68 17.3859 49.0227 17.8462C49.3655 18.3064 49.5408 18.9422 49.5408 19.7119H46.5759C46.6636 20.3812 46.9983 20.7828 47.62 20.7828C48.0504 20.7828 48.2894 20.582 48.4087 20.2556H49.4767C49.4023 20.6475 49.1957 20.9981 48.8949 21.2429C48.5294 21.5282 48.0829 21.6757 47.6277 21.6613C46.9425 21.6613 46.4245 21.4104 46.0579 21.0004ZM46.5919 18.9254H48.4091C48.3772 18.3734 48.0424 18.0054 47.5404 18.0054C46.9665 18.0051 46.6874 18.3565 46.5919 18.9254ZM50.3616 21.0004C49.9822 20.5618 49.7794 19.9861 49.7957 19.3939C49.7819 18.8012 49.981 18.2248 50.3536 17.7792C50.5424 17.5662 50.7722 17.3978 51.0278 17.2853C51.2834 17.1727 51.5589 17.1186 51.836 17.1266C52.2962 17.1122 52.747 17.266 53.1112 17.5616C53.4299 17.8546 53.6366 18.2589 53.693 18.6996H52.633C52.607 18.5122 52.5163 18.3414 52.3782 18.2195C52.2401 18.0977 52.0642 18.0333 51.8839 18.0386C51.2223 18.0386 50.8957 18.5489 50.8957 19.3939C50.8957 20.2139 51.1985 20.7493 51.868 20.7493C52.3143 20.7493 52.6172 20.5151 52.6888 20.0214H53.7329C53.706 20.4649 53.5142 20.8795 53.1989 21.176C52.8362 21.5034 52.3699 21.6765 51.8917 21.6613C51.6067 21.6705 51.3231 21.6164 51.0593 21.5025C50.7956 21.3886 50.5578 21.2175 50.3615 21.0004H50.3616ZM55.2631 17.8043C55.566 17.3443 55.8848 17.1266 56.4506 17.1266C56.6416 17.1207 56.8315 17.1579 57.0076 17.2359C57.1836 17.3139 57.3416 17.4307 57.4708 17.5784C57.7329 17.8991 57.8721 18.3106 57.8613 18.733V21.5358H56.7776V18.9004C56.7776 18.4319 56.5306 18.1139 56.0683 18.1139C55.5901 18.1139 55.2394 18.5071 55.2394 19.1012V21.5358H54.1555V15.5536H55.2394V17.8043H55.2631ZM59.5669 17.8294C59.6857 17.6048 59.8623 17.4198 60.0765 17.2955C60.2908 17.1712 60.5339 17.1127 60.7783 17.1266C60.9693 17.1207 61.1592 17.158 61.3352 17.2359C61.5113 17.3139 61.6692 17.4307 61.7984 17.5784C62.0607 17.8992 62.2 18.3109 62.1892 18.7335V21.5363H61.1047V18.9004C61.1047 18.4319 60.8576 18.1139 60.3954 18.1139C59.9172 18.1139 59.5665 18.5071 59.5665 19.1012V21.5358H58.4826V17.2437H59.5425V17.8294H59.5669ZM63.209 21.0004C63.0133 20.7873 62.8598 20.5356 62.7572 20.2599C62.6546 19.9842 62.605 19.6899 62.6112 19.3939C62.6001 18.794 62.8149 18.2138 63.209 17.7792C63.41 17.5667 63.6499 17.3993 63.9143 17.2872C64.1788 17.175 64.4621 17.1203 64.7473 17.1266C65.0335 17.1212 65.3178 17.1761 65.5834 17.2883C65.849 17.4004 66.0905 17.5673 66.2934 17.7792C66.682 18.2168 66.8935 18.7958 66.8832 19.3939C66.895 19.9899 66.6831 20.5669 66.2934 21.0004C66.092 21.2151 65.851 21.3844 65.5852 21.4981C65.3194 21.6117 65.0343 21.6673 64.7473 21.6614C64.4614 21.6681 64.1772 21.6129 63.9125 21.4992C63.6478 21.3855 63.4083 21.2156 63.2089 21.0004H63.209ZM65.7834 19.3939C65.7834 18.5489 65.4167 17.9883 64.7473 17.9883C64.0779 17.9883 63.7112 18.5489 63.7112 19.3939C63.7112 20.2306 64.0779 20.7912 64.7473 20.7912C65.4167 20.7912 65.7833 20.2307 65.7833 19.3939H65.7834ZM68.4373 15.5536V21.5358H67.3532V15.5536H68.4373ZM69.5053 21.0004C69.3096 20.7873 69.156 20.5356 69.0534 20.2599C68.9508 19.9842 68.9012 19.6899 68.9075 19.3939C68.8963 18.794 69.1112 18.2138 69.5053 17.7792C69.7062 17.5667 69.9462 17.3993 70.2106 17.2872C70.475 17.175 70.7584 17.1203 71.0435 17.1266C71.3298 17.1212 71.6141 17.1761 71.8797 17.2882C72.1453 17.4003 72.3867 17.5673 72.5897 17.7792C72.9783 18.2168 73.1897 18.7958 73.1795 19.3939C73.1912 19.9899 72.9794 20.5669 72.5897 21.0004C72.3883 21.2151 72.1473 21.3844 71.8815 21.4981C71.6156 21.6117 71.3305 21.6673 71.0435 21.6614C70.7576 21.6682 70.4734 21.6129 70.2087 21.4992C69.944 21.3855 69.7045 21.2157 69.5051 21.0004H69.5053ZM72.0796 19.3939C72.0796 18.5489 71.7131 17.9883 71.0435 17.9883C70.374 17.9883 70.0075 18.5489 70.0075 19.3939C70.0075 20.2306 70.3741 20.7912 71.0435 20.7912C71.713 20.7912 72.0793 20.2307 72.0793 19.3939H72.0796ZM73.5221 21.6613H74.5981C74.6857 21.929 74.9089 22.1382 75.419 22.1382C76.0247 22.1382 76.3276 21.8454 76.3276 21.2429V20.7744H76.3037C76.1755 20.94 76.0121 21.0717 75.8267 21.1589C75.6412 21.246 75.4388 21.2863 75.2358 21.2764C75.0055 21.278 74.7774 21.2306 74.5651 21.1371C74.3528 21.0436 74.1607 20.906 74.0004 20.7325C73.813 20.5354 73.6661 20.3 73.5687 20.0409C73.4714 19.7817 73.4257 19.5044 73.4345 19.226C73.4345 18.5902 73.6178 18.063 73.9366 17.6949C74.0955 17.5087 74.2913 17.3613 74.5102 17.263C74.7291 17.1647 74.9659 17.118 75.2039 17.126C75.7139 17.126 76.0886 17.3352 76.3356 17.6949H76.3515V17.2431H77.3956V21.2089C77.3956 21.8112 77.2203 22.2209 76.9094 22.514C76.5666 22.8487 76.0407 22.9993 75.4349 22.9993C74.3029 23 73.6414 22.498 73.5218 21.6613H73.5221ZM76.1601 20.0214C76.3175 19.7809 76.3959 19.493 76.3832 19.2014C76.3933 18.9077 76.3091 18.6189 76.1441 18.3815C76.056 18.2681 75.9437 18.178 75.8164 18.1184C75.689 18.0588 75.5502 18.0314 75.4109 18.0384C74.853 18.0384 74.4943 18.4819 74.4943 19.2098C74.4943 19.9458 74.853 20.3644 75.4189 20.3644C75.5594 20.3723 75.6997 20.3454 75.8284 20.2858C75.9571 20.2262 76.0707 20.1357 76.1599 20.0215L76.1601 20.0214ZM78.5192 22.0461C78.9574 22.0461 79.1248 21.8202 79.1248 21.4604C79.1225 21.3158 79.101 21.1722 79.0611 21.0337C79.0053 20.858 78.9336 20.6238 78.8141 20.2977L77.7142 17.2439H78.8535L79.4592 19.1766C79.5229 19.3774 79.5787 19.6032 79.6345 19.7958C79.6583 19.9045 79.6902 20.0049 79.7221 20.1137H79.738C79.7619 20.0049 79.7858 19.9045 79.8097 19.7958C79.8555 19.5865 79.9113 19.3799 79.9771 19.1766L80.551 17.2439H81.6429L80.2163 21.6447C80.0569 22.13 79.9055 22.4479 79.6904 22.6487C79.4673 22.8579 79.1884 22.9416 78.7739 22.9416H78.1363V22.0463L78.5192 22.0461ZM20.5146 21.5357H25.0734V7.17865H20.5144L20.5146 21.5357ZM27.3528 4.78561H38.7494V0H27.3526L27.3528 4.78561ZM20.5144 0H25.0732V4.78573H20.5144V0ZM13.6762 21.5358H18.235V0H13.6762V21.5358ZM6.83807 16.7501H11.3968V0H6.83818L6.83807 16.7501ZM0 21.5358H4.55875V0H0V21.5358ZM27.3526 21.5358H31.9114V7.17865H27.3526V21.5358Z" fill="var(--fill-0, white)"/>
</g>
<defs>
<clipPath id="clip0_0_88">
<rect width="95" height="23" fill="white"/>
</clipPath>
</defs>
</svg>
