<svg width="97" height="21" viewBox="0 0 97 21" fill="none" xmlns="http://www.w3.org/2000/svg">
<g id="Desktop">
<g id="Main">
<g id="Section - Social proof logos" clip-path="url(#clip0_0_1)">
<g id="Container">
<g id="Group 2147203180">
<g id="Stanford_University_idJUIPPYM3_0 1" clip-path="url(#clip1_0_1)">
<g id="Group">
<path id="Vector" d="M53.0345 2.18073C53.8208 0.774021 55.4043 0.0324148 56.9383 0.0183224C58.3383 -0.0750807 59.9218 0.165502 60.9025 1.30898C60.4039 1.98827 59.9272 2.68173 59.4286 3.361C58.8725 2.70152 58.415 1.7731 57.5164 1.58629C56.6315 1.30325 55.5193 1.77876 55.2891 2.75808C54.9165 4.31196 55.1412 5.93655 55.0864 7.52163H57.9602V9.2907H55.0837C55.0837 11.957 55.0837 14.6231 55.0809 17.2894C55.07 18.0451 55.1878 18.7924 55.3247 19.5339C55.9822 19.848 56.6918 20.0094 57.4178 20.0235C57.415 20.2075 57.4123 20.5783 57.4095 20.7651C55.059 20.6066 52.7057 20.5585 50.3579 20.7623C50.3579 20.6066 50.3634 20.2952 50.3634 20.1396C51.1058 20.0037 52.0262 19.6471 52.0564 18.7244C52.3441 15.5912 52.1495 12.4352 52.2071 9.29075C51.6345 9.29075 51.0619 9.29075 50.4893 9.28792C50.4921 9.02187 50.4975 8.75297 50.5003 8.48692C51.0811 8.20953 51.6482 7.90103 52.207 7.58402C52.207 5.76688 52.1029 3.80255 53.0343 2.18082L53.0345 2.18073Z" fill="white"/>
<path id="Vector_2" d="M95.4069 0.0155029C93.8865 0.377788 92.347 0.683375 90.7854 0.754134C90.7689 0.901314 90.7387 1.1956 90.725 1.34279C91.3058 1.52394 92.2537 1.47605 92.2948 2.31385C92.5277 4.01215 92.3633 5.7355 92.4099 7.44506C90.1717 7.04882 87.6704 7.07429 85.7665 8.51496C83.6817 10.0236 82.9667 12.8371 83.1749 15.3449C83.2927 17.2894 84.235 19.2849 85.9417 20.233C87.9744 21.3878 90.5744 21.15 92.4784 19.8197C92.4921 20.2132 92.5003 20.6065 92.503 21C93.9769 20.6122 95.4839 20.3943 96.9988 20.3037V19.6242C94.8517 19.2465 95.4454 18.2199 95.2947 16.4743C95.2975 10.989 95.2152 5.50081 95.407 0.0158786L95.4069 0.0155029ZM89.8369 8.86117C90.7435 8.85125 91.6656 9.1505 92.4099 9.6727C92.4126 12.6248 92.4044 15.5768 92.4153 18.5289C90.821 19.2846 88.6649 19.2308 87.4156 17.8325C86.3445 16.6494 86.1636 14.9173 86.2595 13.3718C86.3664 11.9651 86.6515 10.3575 87.8404 9.4856C88.4361 9.06334 89.1318 8.8687 89.8369 8.86098L89.8369 8.86117Z" fill="white"/>
<path id="Vector_3" d="M5.03432 1.81838C6.83967 1.70516 8.65048 1.82687 10.4367 2.08726C10.3299 3.40057 10.3409 4.72239 10.4395 6.03565C10.2669 6.03565 9.9217 6.03848 9.74911 6.03848C9.61213 5.21767 9.46966 4.22134 8.62314 3.85619C7.36843 3.30992 5.89996 3.25615 4.59868 3.64674C2.89745 4.16754 2.61798 6.75444 3.88367 7.88387C5.46714 9.31605 7.40677 10.253 9.02859 11.6426C11.5681 13.7314 11.2366 18.5941 8.22315 20.0574C5.68638 21.2688 2.70843 20.9631 0.0893689 20.2017C0.105737 18.9005 0.0592092 17.5993 0.00161743 16.2997C0.19064 16.2969 0.571443 16.2884 0.763208 16.2855C0.897447 17.1035 1.02072 18.1083 1.82341 18.53C3.25893 19.3621 5.11084 19.4301 6.60126 18.714C8.46147 17.6526 8.11895 14.5844 6.37935 13.5513C4.86984 12.3503 3.13572 11.4625 1.74124 10.1065C0.196111 8.62331 0.00439087 6.02498 0.99891 4.17104C1.81247 2.69353 3.45353 1.95493 5.03428 1.81902L5.03432 1.81838Z" fill="white"/>
<path id="Vector_4" d="M15.7484 4.60071C15.8909 4.6092 16.1785 4.62335 16.321 4.63184C16.3182 5.61964 16.3182 6.60463 16.3182 7.5925H20.7016V9.2908H16.3182C16.3347 11.6683 16.2826 14.0487 16.3429 16.4291C16.4031 17.3348 16.4278 18.4642 17.2469 19.019C18.2797 19.653 19.5153 19.2567 20.5482 18.8406C20.8659 19.6445 20.0578 20.0945 19.4962 20.4285C18.1784 21.088 16.5703 21.1588 15.2088 20.6097C14.0444 20.1597 13.4828 18.8436 13.4225 17.6378C13.2828 14.8583 13.4225 12.0733 13.4444 9.29097H11.7321C11.7294 9.10417 11.7267 8.92018 11.7239 8.73621C13.5841 8.01163 14.8387 6.35585 15.7484 4.60103L15.7484 4.60071Z" fill="white"/>
<path id="Vector_5" d="M27.4789 7.14345C25.5039 7.12248 23.5119 8.13604 22.8774 10.1851C23.05 10.287 23.4006 10.4878 23.576 10.5897C24.3348 9.20567 26.1073 8.49529 27.5043 9.29353C28.6001 9.80865 28.6935 11.1926 28.6716 12.2767C26.9483 12.8485 25.1648 13.2986 23.5375 14.1365C21.587 15.2007 21.335 18.2178 22.7322 19.8509C24.3787 21.4105 27.1264 21.1585 28.7537 19.6838C29.2495 20.6971 30.422 21.0849 31.4438 20.7877C32.3342 20.6094 32.9231 19.8424 33.5067 19.1942C33.4053 19.0753 33.2 18.8347 33.0986 18.713C32.7315 18.8092 32.3178 19.1092 31.9589 18.8177C31.4932 18.4865 31.5506 17.8214 31.5177 17.3091C31.5506 15.1127 31.6684 12.9109 31.5561 10.7117C31.5013 9.57383 31.0082 8.41036 30.0329 7.81316C29.271 7.37621 28.3768 7.15298 27.4789 7.14345ZM28.6412 13.9919C28.6522 15.4722 28.6413 16.9524 28.6523 18.4327C27.7346 18.8545 26.6442 19.2451 25.6771 18.7611C24.4936 18.1101 24.543 16.1629 25.5211 15.3449C26.4607 14.6769 27.5755 14.3627 28.6412 13.9919Z" fill="white"/>
<path id="Vector_6" d="M65.2364 7.19905C63.7927 7.21603 62.3023 7.58683 61.1735 8.55765C59.4941 9.96153 58.7655 12.2824 58.8395 14.4618C58.8313 16.327 59.3929 18.3168 60.8147 19.5566C62.4941 21.0681 64.935 21.218 67.0252 20.7679C69.2306 20.267 70.888 18.2715 71.3565 16.0355C71.8605 13.7147 71.6496 11.0174 70.1045 9.14373C68.9155 7.70589 67.0116 7.16225 65.2364 7.19905ZM65.2556 8.7832C66.0315 8.79878 66.7992 9.12799 67.2965 9.76624C68.1978 10.9069 68.4389 12.441 68.5047 13.8731C68.5156 15.4326 68.3238 17.1165 67.3732 18.3902C66.439 19.6384 64.4256 19.7771 63.3489 18.6534C62.5243 17.8637 62.2174 16.6893 62.0311 15.5853C61.8366 14.1192 61.886 12.5935 62.3325 11.1811C62.6448 10.2358 63.253 9.27914 64.2173 8.95642C64.5486 8.83348 64.903 8.77587 65.2557 8.78296L65.2556 8.7832Z" fill="white"/>
<path id="Vector_7" d="M34.537 8.0991C36.0685 8.07362 37.6218 7.90946 39.0353 7.25563C39.0847 7.63207 39.123 8.00851 39.1531 8.39062C40.7777 7.29243 42.8762 6.86504 44.7364 7.54434C46.0678 8.00569 46.9993 9.35302 47.117 10.7795C47.391 13.4938 46.9938 16.245 47.3444 18.9537C47.3828 19.8057 48.2704 19.9981 48.9142 20.1368C48.917 20.2953 48.917 20.6123 48.9197 20.7708C46.7446 20.5925 42.3887 20.7623 42.3887 20.7623L42.3804 20.1206C42.3804 20.1206 43.9516 19.6642 44.0515 19.1971C44.4104 17.1819 44.3254 15.0987 44.3063 13.0524C44.235 11.8296 44.2652 10.3012 43.1338 9.55682C41.9201 8.83507 40.4325 9.16906 39.1916 9.63607C39.1998 12.2853 39.1916 14.9373 39.1916 17.5867C39.2272 18.2943 39.1779 19.101 39.6244 19.6896C39.9998 19.9585 40.471 20.0066 40.9011 20.1312C40.9038 20.2897 40.9065 20.6095 40.9065 20.7708C38.7614 20.6265 36.611 20.5331 34.4685 20.768C34.4685 20.6095 34.474 20.2953 34.474 20.1396C35.126 19.984 35.9863 19.7717 36.1095 18.9565C36.4081 17.0036 36.178 15.0081 36.2492 13.0382C36.2218 11.9145 36.3423 10.7767 36.1506 9.66712C35.9999 8.90857 35.1041 8.95104 34.5397 8.80101C34.5397 8.62553 34.537 8.27459 34.537 8.0991Z" fill="white"/>
<path id="Vector_8" d="M72.8188 8.03956C74.3531 8.01692 75.8871 7.8018 77.3446 7.29517L77.3857 8.46128C78.8596 7.23573 81.0815 6.92438 82.6511 8.13861L81.0143 10.7197C80.25 9.50265 78.6994 9.20829 77.4749 9.82814C77.4749 9.82814 77.4666 15.1861 77.4831 17.8636C77.5461 18.4608 77.4557 19.2364 77.9981 19.6269C78.5214 19.9439 79.1569 19.9269 79.7404 20.0232C79.7404 20.2071 79.7377 20.5808 79.7377 20.7647C77.3844 20.6006 75.0256 20.5666 72.6724 20.7591L72.6719 20.0232C73.4305 19.8895 74.2202 19.6184 74.3352 19.1514C74.6612 17.9994 74.5024 16.7795 74.5352 15.5935C74.5024 13.7056 74.601 11.8149 74.4914 9.92993C74.4832 9.01289 73.4778 8.93081 72.8258 8.79778C72.8269 8.53784 72.8214 8.27091 72.8204 8.03925L72.8188 8.03956Z" fill="white"/>
</g>
</g>
</g>
</g>
</g>
</g>
</g>
<defs>
<clipPath id="clip0_0_1">
<rect width="1440" height="194" fill="white" transform="translate(-305.978 -122)"/>
</clipPath>
<clipPath id="clip1_0_1">
<rect width="97" height="21" fill="white"/>
</clipPath>
</defs>
</svg>
