<svg width="60" height="25" viewBox="0 0 60 25" fill="none" xmlns="http://www.w3.org/2000/svg">
<g id="Desktop">
<g id="Main">
<g id="Section - Social proof logos" clip-path="url(#clip0_0_1)">
<g id="Container">
<path id="Vector" fill-rule="evenodd" clip-rule="evenodd" d="M6.26988 11.2456C4.97699 10.7652 4.26844 10.3915 4.26844 9.80433C4.26844 9.30602 4.67585 9.02137 5.40206 9.02137C6.73043 9.02137 8.09413 9.53743 9.03288 9.99997L9.56423 6.70824C8.82034 6.35232 7.29711 5.76514 5.18952 5.76514C3.70176 5.76514 2.46186 6.15655 1.57637 6.88613C0.655282 7.65122 0.177071 8.75446 0.177071 10.089C0.177071 12.5089 1.64717 13.541 4.03823 14.4128C5.57913 14.9644 6.09281 15.3559 6.09281 15.9609C6.09281 16.5481 5.5968 16.8861 4.69351 16.8861C3.57769 16.8861 1.73577 16.3346 0.531346 15.6228L0 18.9502C1.02722 19.5374 2.94007 20.1423 4.92385 20.1423C6.50009 20.1423 7.81079 19.7687 8.69641 19.057C9.68817 18.274 10.2018 17.1175 10.2018 15.6228C10.2018 13.1494 8.69641 12.1175 6.26988 11.2456ZM18.8518 9.30602L19.3831 6.03204H16.578V2.05757L12.8065 2.68105L12.2619 6.03204L10.9354 6.24823L10.4388 9.30602H12.2564V15.7296C12.2564 17.4022 12.6815 18.5588 13.5493 19.2705C14.2755 19.8577 15.3204 20.1423 16.7905 20.1423C17.924 20.1423 18.6148 19.9467 19.093 19.8221V16.3523C18.8273 16.4236 18.2252 16.5481 17.8178 16.5481C16.9499 16.5481 16.578 16.1033 16.578 15.089V9.30602H18.8518ZM27.2757 5.8408C26.036 5.8408 25.0441 6.49472 24.6545 7.6691L24.3888 6.03204H20.5454V19.8754H24.9378V10.8897C25.4869 10.2135 26.2662 9.96901 27.3289 9.96901C27.5592 9.96901 27.8071 9.96901 28.1082 10.0224V5.94756C27.8071 5.87643 27.5414 5.8408 27.2757 5.8408ZM31.3849 4.66189C32.6601 4.66189 33.6873 3.61215 33.6873 2.33101C33.6873 1.03199 32.6601 0 31.3849 0C30.0919 0 29.0646 1.03199 29.0646 2.33101C29.0646 3.61215 30.0919 4.66189 31.3849 4.66189ZM29.1709 6.03204H33.5811V19.8754H29.1709V6.03204ZM46.0787 7.27755C45.2994 6.26331 44.219 5.76514 42.8375 5.76514C41.5623 5.76514 40.4465 6.29894 39.4014 7.41994L39.1712 6.03204H35.3101V25L39.7026 24.2706V19.8221C40.3755 20.0356 41.0663 20.1423 41.6862 20.1423C42.7844 20.1423 44.3784 19.8577 45.6182 18.5054C46.8048 17.2064 47.4071 15.1958 47.4071 12.5445C47.4071 10.1957 46.9642 8.41643 46.0787 7.27755ZM42.4301 15.8185C42.0758 16.4947 41.5268 16.8506 40.8892 16.8506C40.4465 16.8506 40.0567 16.7616 39.7026 16.5837V9.99997C40.4465 9.21714 41.1194 9.12813 41.3674 9.12813C42.4832 9.12813 43.0323 10.3381 43.0323 12.7046C43.0323 14.0569 42.8375 15.1068 42.4301 15.8185ZM60 12.8292C60 10.6228 59.5218 8.87898 58.583 7.65122C57.6266 6.40571 56.192 5.76514 54.3677 5.76514C50.6305 5.76514 48.3104 8.54094 48.3104 12.9893C48.3104 15.4805 48.9302 17.3488 50.1523 18.5409C51.2505 19.6085 52.8268 20.1423 54.8636 20.1423C56.741 20.1423 58.4768 19.6975 59.5749 18.968L59.0967 15.9431C58.0162 16.5303 56.7588 16.8506 55.3418 16.8506C54.4917 16.8506 53.9072 16.6726 53.4821 16.2989C53.0216 15.9075 52.7559 15.2669 52.6674 14.3595H59.9469C59.9645 14.1459 60 13.1494 60 12.8292ZM52.632 11.6548C52.7559 9.67969 53.2872 8.75446 54.2968 8.75446C55.2887 8.75446 55.8024 9.69757 55.8732 11.6548H52.632Z" fill="white"/>
</g>
</g>
</g>
</g>
<defs>
<clipPath id="clip0_0_1">
<rect width="1440" height="194" fill="white" transform="translate(-119.978 -120)"/>
</clipPath>
</defs>
</svg>
