<svg width="123" height="23" viewBox="0 0 123 23" fill="none" xmlns="http://www.w3.org/2000/svg">
<g id="Desktop">
<g id="Main">
<g id="Section - Social proof logos" clip-path="url(#clip0_0_1)">
<g id="Container">
<g id="UC_Berkeley_Logo_0 1" clip-path="url(#clip1_0_1)">
<path id="Vector" d="M112.289 23C113.458 23 114.557 22.1337 116.754 17.5194C118.251 14.2408 119.373 11.3368 120.542 8.3627C120.916 7.40217 121.103 7.21489 121.687 7.05115C122.108 6.93396 122.272 6.77022 122.272 6.51229C122.272 6.27791 122.131 6.06708 121.781 6.06708C121.267 6.06708 120.659 6.13772 119.957 6.13772C119.232 6.13772 118.695 6.06708 118.157 6.06708C117.83 6.06708 117.666 6.25491 117.666 6.48875C117.666 6.74613 117.83 6.91041 118.204 7.0276C119.232 7.30853 119.326 7.75375 118.928 8.97165C118.297 10.8921 117.596 12.742 116.52 15.2014C115.609 12.9293 114.837 10.8916 114.066 8.59708C113.785 7.70665 113.879 7.33208 114.978 7.0276C115.398 6.91041 115.539 6.77022 115.539 6.51284C115.539 6.25491 115.352 6.06708 115.024 6.06708C114.323 6.06708 113.598 6.13772 112.64 6.13772C111.611 6.13772 110.863 6.06708 110.138 6.06708C109.787 6.06708 109.624 6.27791 109.624 6.51229C109.624 6.79322 109.764 6.93396 110.185 7.05115C110.722 7.19134 110.886 7.37863 111.213 8.22196C112.499 11.431 113.645 14.2644 115.141 18.1054C114.136 19.9552 113.387 20.3769 112.382 20.5642C111.564 20.7049 111.026 21.2202 111.026 21.8757C111.026 22.4146 111.4 23 112.289 23ZM104.994 7.00406C106.491 7.00406 107.169 8.36215 107.169 8.90101C107.169 9.08829 107.076 9.22958 106.865 9.27613C105.602 9.6036 104.083 9.90808 102.493 10.1896C102.773 8.05822 103.826 7.00406 104.994 7.00406ZM105.158 17.543C107.192 17.543 108.595 16.5359 109.437 15.5288C109.811 15.0842 109.577 14.6855 109.203 14.6855C109.109 14.6855 109.016 14.7326 108.922 14.7797C107.94 15.3886 107.169 15.7161 106.117 15.7161C103.802 15.7161 102.423 13.679 102.423 11.3604V11.3133C104.714 10.9858 106.959 10.5406 109.273 10.0017C109.577 9.93163 109.787 9.69724 109.717 9.34622C109.343 7.65955 107.8 5.8097 105.135 5.8097C102.469 5.8097 100.015 8.29206 100.015 11.8757C100.015 15.2479 102.189 17.543 105.158 17.543ZM94.2404 17.3557C95.0118 17.3557 95.8301 17.2856 96.7649 17.2856C97.7003 17.2856 98.5656 17.3557 99.337 17.3557C99.6874 17.3557 99.8514 17.1449 99.8514 16.9105C99.8514 16.6531 99.6874 16.4187 99.29 16.3722C98.2382 16.255 98.0512 16.1378 98.0512 15.646C98.0042 13.3745 98.0042 11.2432 98.0042 9.13539C98.0042 7.19134 98.0042 5.06056 98.0742 0.329674C98.0742 0.0251981 97.8872 -0.0454447 97.6303 0.0251981C96.5314 0.300816 95.414 0.496461 94.2869 0.610603C93.8895 0.634151 93.726 0.821436 93.726 1.05527C93.726 1.31265 93.8895 1.50048 94.3339 1.57058C95.3622 1.75786 95.4792 1.87506 95.5027 2.41391C95.5497 4.77963 95.5497 7.00405 95.5497 9.13539C95.5497 11.2432 95.5497 13.374 95.5027 15.6466C95.4792 16.1378 95.3392 16.2314 94.2869 16.3722C93.866 16.4187 93.726 16.6531 93.726 16.911C93.726 17.1449 93.8895 17.3557 94.2404 17.3557ZM88.9569 7.00406C90.4531 7.00406 91.131 8.36215 91.131 8.90101C91.131 9.08829 91.0375 9.22958 90.827 9.27613C89.5642 9.6036 88.045 9.90808 86.4553 10.1896C86.7358 8.05822 87.7876 7.00406 88.9569 7.00406ZM89.1203 17.543C91.1545 17.543 92.5572 16.5359 93.3985 15.5288C93.773 15.0842 93.539 14.6855 93.1651 14.6855C93.0716 14.6855 92.9776 14.7326 92.8841 14.7797C91.9023 15.3886 91.131 15.7161 90.0786 15.7161C87.7641 15.7161 86.3848 13.679 86.3848 11.3604V11.3133C88.6759 10.9858 90.9205 10.5406 93.2351 10.0017C93.539 9.93163 93.7495 9.69724 93.6795 9.34622C93.3051 7.65955 91.7624 5.8097 89.0968 5.8097C86.4318 5.8097 83.9767 8.29206 83.9767 11.8757C83.9767 15.2479 86.1514 17.543 89.1203 17.543ZM72.2404 17.3557C73.0123 17.3557 73.7836 17.2856 74.7184 17.2856C75.6537 17.2856 76.4486 17.3557 77.2205 17.3557C77.5709 17.3557 77.7344 17.1449 77.7344 16.9105C77.7344 16.6531 77.5944 16.4658 77.1735 16.3722C76.1217 16.2079 76.0047 16.1378 76.0047 15.646C75.9812 14.8969 75.9812 14.1472 75.9812 13.4211C76.4968 13.0913 77.0036 12.7478 77.5009 12.391C78.4827 13.8663 79.4881 15.3886 80.4699 16.7938C80.7738 17.2385 80.9378 17.3321 81.4287 17.3321C82.1301 17.3321 82.9949 17.3092 84.0003 17.3321C84.3507 17.3321 84.5382 17.1219 84.5382 16.8639C84.5382 16.6296 84.4441 16.4187 83.9532 16.3722C83.2989 16.3021 82.9479 15.9741 82.387 15.2479C81.4052 13.9128 80.3764 12.3904 79.4181 10.9151C79.4181 10.8921 79.4411 10.8921 79.4646 10.8686C81.2647 9.29913 82.457 8.10477 83.3459 6.93396C83.4623 6.76967 83.5329 6.62948 83.5329 6.48875C83.5329 6.20782 83.3459 6.02053 82.9714 6.04408C81.8726 6.13717 80.8673 6.13717 79.628 6.06708C79.1371 6.04408 78.9972 6.27791 78.9972 6.51229C78.9972 6.72313 79.1606 6.95751 79.4881 7.0276L79.9555 7.14479C80.7274 7.33208 80.7274 7.96458 79.7685 8.97165C78.7397 10.0724 77.4075 11.126 75.9577 12.0394V9.13539C75.9577 7.19134 75.9577 5.06056 76.0277 0.329674C76.0277 0.0251981 75.8407 -0.0454447 75.5838 0.0251981C74.4848 0.300816 73.3675 0.496461 72.2404 0.610603C71.8429 0.634151 71.6795 0.821436 71.6795 1.05527C71.6795 1.31265 71.8429 1.50048 72.2874 1.57058C73.3157 1.75786 73.4326 1.87506 73.4561 2.41391C73.5032 4.77963 73.5032 7.00405 73.5032 9.13539C73.5032 11.2432 73.5032 13.374 73.4561 15.6466C73.4326 16.1378 73.3392 16.2084 72.2874 16.3722C71.8664 16.4658 71.7259 16.6531 71.7259 16.911C71.7259 17.1449 71.89 17.3557 72.2404 17.3557ZM63.5669 17.3557C64.3153 17.3557 65.1102 17.2856 66.0215 17.2856C66.9333 17.2856 67.9857 17.3557 68.7335 17.3557C69.061 17.3557 69.2249 17.1449 69.2249 16.9105C69.2249 16.6531 69.0845 16.4423 68.6171 16.3722C67.4248 16.2314 67.3078 16.1148 67.2843 15.6225C67.2373 14.3345 67.2373 13.1872 67.2373 11.6884V9.72025C68.4531 8.10477 69.0145 7.7762 69.6224 7.7762C70.3467 7.7762 70.9546 8.68963 71.2585 8.68963C71.4225 8.68963 71.516 8.64308 71.633 8.4087C71.8664 7.94048 72.1004 7.47227 72.3344 6.98051C72.4743 6.67603 72.4044 6.51175 72.1239 6.32446C71.5625 5.94989 70.9781 5.69196 70.3937 5.69196C69.3649 5.69196 68.4296 6.55884 67.2608 8.47934C67.2608 7.7061 67.2843 6.86332 67.3078 5.92634C67.3078 5.62186 67.1208 5.55177 66.8633 5.62186C65.6476 5.94989 64.5023 6.13663 63.5199 6.20782C63.1225 6.25436 62.9826 6.4181 62.9826 6.67548C62.9826 6.93341 63.1225 7.1207 63.5669 7.19079C64.5958 7.37808 64.7128 7.49527 64.7357 8.01058C64.7827 9.18194 64.7827 10.4228 64.7827 11.6878C64.7827 13.1867 64.7827 14.3339 64.7357 15.6219C64.7128 16.1142 64.6422 16.2309 63.6134 16.3716C63.193 16.4653 63.0525 16.6526 63.0525 16.9105C63.0525 17.1443 63.2165 17.3552 63.5669 17.3552V17.3557ZM57.886 7.00406C59.3822 7.00406 60.0601 8.36215 60.0601 8.90101C60.0601 9.08829 59.9666 9.22958 59.7561 9.27613C58.4939 9.6036 56.9742 9.90808 55.3844 10.1896C55.6649 8.05822 56.7172 7.00406 57.886 7.00406ZM58.0494 17.543C60.0836 17.543 61.4863 16.5359 62.3282 15.5288C62.7021 15.0842 62.4681 14.6855 62.0942 14.6855C62.0007 14.6855 61.9073 14.7326 61.8138 14.7797C60.832 15.3886 60.0601 15.7161 59.0083 15.7161C56.6937 15.7161 55.3145 13.679 55.3145 11.3604V11.3133C57.6055 10.9858 59.8502 10.5406 62.1642 10.0017C62.4681 9.93163 62.6786 9.69724 62.6086 9.34622C62.2347 7.65955 60.6915 5.8097 58.0265 5.8097C55.3609 5.8097 52.9064 8.29206 52.9064 11.8757C52.9064 15.2479 55.0805 17.543 58.0494 17.543ZM43.7885 16.0677C43.0872 15.9034 42.8537 15.6696 42.8302 14.8262C42.7832 13.0465 42.7832 11.6648 42.7832 9.13539V9.08884C46.7575 8.99465 48.8387 9.88453 48.8387 12.7891C48.8387 14.4988 47.6229 16.2084 45.1678 16.2084C44.5369 16.2084 44.1395 16.1613 43.7885 16.0677ZM42.8302 3.02286C42.8302 2.5541 42.9467 2.36682 43.2976 2.22663C43.5781 2.13298 43.999 2.08589 44.6534 2.08589C46.594 2.08589 47.7863 3.14006 47.7863 5.20075C47.7863 6.34856 47.4124 7.30908 46.8045 8.03467C45.6122 7.82384 44.2559 7.75375 42.7832 7.82384C42.7832 5.97344 42.7832 4.63889 42.8302 3.02286ZM45.5417 17.4964C49.423 17.4964 51.7376 15.2244 51.7376 12.5783C51.7376 10.494 50.4748 9.15894 48.3942 8.43279C49.563 7.7302 50.5689 6.4422 50.5689 4.89627C50.5689 2.39036 48.4877 0.844436 44.8403 0.844436C43.2741 0.844436 42.8997 0.985174 41.4269 0.985174C39.9072 0.985174 38.9724 0.867984 38.3645 0.867984C37.9906 0.867984 37.8036 1.07882 37.8036 1.38329C37.8036 1.64067 37.9436 1.85206 38.4345 1.9457C39.6973 2.13298 40.0012 2.39036 40.0012 3.02286C40.0247 5.01346 40.0477 6.51229 40.0477 9.13539C40.0477 11.7585 40.0477 13.3044 40.0012 15.295C39.9777 15.9741 39.7443 16.1613 38.4815 16.2785C37.9906 16.3486 37.8501 16.583 37.8501 16.8404C37.8501 17.1449 38.0371 17.3557 38.4115 17.3557C39.3234 17.3557 40.1882 17.3092 41.4269 17.3092C42.5963 17.3092 43.671 17.4964 45.5417 17.4964ZM26.5352 17.6366C28.5223 17.6366 30.3695 17.0748 32.1227 15.927C32.6136 15.6225 32.7541 15.295 32.7541 14.967C32.7541 14.3345 32.8005 13.7491 32.777 13.2338C32.7541 12.8357 32.5671 12.6018 32.2397 12.6018C31.9827 12.6018 31.7952 12.7656 31.7017 13.1166C31.0939 15.1543 29.2702 16.255 26.9561 16.255C23.5422 16.255 20.9707 13.4211 20.9707 9.13539C20.9707 4.80263 23.4023 1.9687 27.0026 1.9687C29.3407 1.9687 30.7434 2.83558 31.5148 4.66244C31.6788 5.03701 31.8187 5.22429 32.1227 5.22429C32.4501 5.22429 32.5901 4.98991 32.6136 4.61534C32.6371 4.07648 32.6371 3.2337 32.6371 2.71839C32.6371 2.36682 32.5201 2.08589 32.0057 1.80496C30.7669 1.12591 29.0367 0.634151 27.1896 0.634151C21.7191 0.634151 17.9782 4.40451 17.9782 9.39332C17.9782 14.2408 21.4851 17.6366 26.5352 17.6366ZM8.76744 17.6366C12.8117 17.6366 15.4772 15.1307 15.4772 10.7043V9.13539C15.4772 6.48874 15.4772 4.94336 15.5002 2.81203C15.5237 2.32027 15.7571 2.10944 17.0434 1.99225C17.4879 1.92215 17.6284 1.68777 17.6284 1.43039C17.6284 1.12591 17.4409 0.915079 17.0899 0.915079C16.3421 0.915079 15.6172 0.985174 14.6824 0.985174C13.7235 0.985174 12.9751 0.915079 12.2038 0.915079C11.8534 0.915079 11.6664 1.12591 11.6664 1.42984C11.6664 1.66422 11.8064 1.8986 12.2743 1.9687C13.63 2.10944 13.864 2.32027 13.864 2.81203C13.9105 4.94336 13.9105 6.48874 13.9105 9.13539V10.517C13.9105 13.9835 12.2038 15.7397 9.35128 15.7397C6.42935 15.7397 4.90961 13.9134 4.90961 10.6813V9.13539C4.90961 6.48874 4.90961 4.94336 4.95663 2.81203C4.95663 2.32027 5.19005 2.10944 6.47636 1.99225C6.94376 1.92215 7.08371 1.68777 7.08371 1.43039C7.08371 1.12591 6.89675 0.915079 6.52283 0.915079C5.63449 0.915079 4.74616 0.985174 3.53037 0.985174C2.31459 0.985174 1.44867 0.915079 0.53792 0.915079C0.18696 0.915079 0 1.12591 0 1.42984C0 1.68777 0.140493 1.92215 0.607893 1.99225C1.89365 2.10944 2.12763 2.32027 2.12763 2.81203C2.17409 4.94336 2.17409 6.48874 2.17409 9.13539V10.9858C2.17409 15.3651 4.70024 17.6366 8.76744 17.6366Z" fill="white"/>
</g>
</g>
</g>
</g>
</g>
<defs>
<clipPath id="clip0_0_1">
<rect width="1440" height="194" fill="white" transform="translate(-528.978 -121)"/>
</clipPath>
<clipPath id="clip1_0_1">
<rect width="123" height="23" fill="white"/>
</clipPath>
</defs>
</svg>
