<svg width="134" height="27" viewBox="0 0 134 27" fill="none" xmlns="http://www.w3.org/2000/svg">
<g id="Desktop">
<g id="Main">
<g id="Section - Social proof logos" clip-path="url(#clip0_0_1)">
<g id="Container">
<g id="Y_Combinator_id-5KfjQKW_0 1" clip-path="url(#clip1_0_1)">
<g id="Group">
<g id="Group_2">
<g id="Group_3">
<path id="Vector" d="M75.2382 5.34253C75.4687 5.34253 75.5263 5.62976 75.5263 5.85955C75.5839 6.7787 75.6415 7.6404 75.6415 8.55955C75.6991 9.42125 75.6991 10.283 75.6991 11.1447C76.2176 10.7425 76.6785 10.3404 77.2546 10.1681C78.1763 9.76593 79.2709 9.76593 80.1927 10.2255C81.172 10.7425 81.8057 11.6617 82.1514 12.6383C82.4394 13.6149 82.5547 14.6489 82.497 15.6255C82.3818 16.8319 82.0938 17.9808 81.4025 18.9574C80.9992 19.5319 80.4807 19.9915 79.7894 20.2213C78.6948 20.6234 77.5426 20.451 76.5632 19.8766C76.2752 19.7042 75.9872 19.417 75.7567 19.1872C75.6415 19.5319 75.5839 19.8766 75.4687 20.2213C74.9502 20.2213 74.4893 20.2787 73.9708 20.1638C74.1436 19.3595 74.1437 18.4978 74.2013 17.6936C74.2589 14.7638 74.2013 11.834 74.2013 8.96168C74.1437 7.81274 74.2013 6.66381 74.0284 5.57232C74.3741 5.45742 74.835 5.34253 75.2382 5.34253ZM79.0405 11.3744C78.5796 11.2596 78.1187 11.2596 77.7154 11.317C76.9089 11.4319 76.2752 12.0064 75.7567 12.5808C75.7567 12.7532 75.7567 12.983 75.7567 13.1553V17.8085C75.7567 17.9808 75.8719 18.0957 75.9872 18.1532C76.7937 18.9 77.9459 19.2447 78.9829 19.0149C79.5013 18.9 79.9622 18.5553 80.1927 18.0957C80.5959 17.4638 80.7111 16.717 80.7688 15.9702C80.8264 15.3957 80.884 14.8213 80.8264 14.3042C80.8264 13.6723 80.6535 12.983 80.3079 12.4085C80.0198 11.834 79.559 11.4893 79.0405 11.3744ZM85.6656 5.74466C85.9536 5.62976 86.3569 5.62976 86.6449 5.8021C86.933 5.97444 87.1634 6.26168 87.2786 6.54891C87.4515 7.23827 86.933 7.98508 86.2417 8.04253C85.7232 8.09998 85.1471 7.81274 84.9743 7.23827C84.7438 6.72125 85.0895 5.97444 85.6656 5.74466ZM38.0224 6.95104C38.7713 6.43402 39.6931 6.03189 40.6148 6.03189C41.5942 6.03189 42.5736 6.08934 43.4377 6.49147C43.7834 6.66381 44.129 6.83615 44.4747 7.06593C44.2442 7.46806 43.9562 7.7553 43.6682 8.09998C43.3225 7.92764 42.9768 7.69785 42.5736 7.52551C41.6518 7.18083 40.5572 7.12338 39.6355 7.52551C38.8289 7.81274 38.1952 8.44466 37.792 9.19147C37.5615 9.76593 37.3311 10.3404 37.2159 10.9149C37.1007 11.4893 37.1007 12.0638 37.043 12.6383C37.043 13.3851 36.9854 14.1893 37.043 14.9361C37.1583 16.0276 37.5615 17.0617 38.2529 17.8659C38.8866 18.6127 39.8083 19.0149 40.7877 19.1298C41.3062 19.1298 41.767 19.1298 42.2855 19.0149C42.8616 18.9 43.3801 18.5553 43.9562 18.3255C44.2443 18.6127 44.5323 19.0149 44.8203 19.3596C44.4171 19.5893 44.0138 19.8191 43.5529 19.9915C42.4007 20.451 41.0757 20.5085 39.8659 20.3361C38.9442 20.1638 38.1376 19.7042 37.4463 19.1298C36.6398 18.4404 36.0637 17.5213 35.718 16.5447C35.4876 15.8553 35.3724 15.1659 35.3148 14.4766C35.3148 13.9596 35.1995 13.4425 35.3148 12.8681C35.3148 11.8915 35.4876 10.8574 35.8909 9.93827C36.2941 8.78934 36.9854 7.69785 38.0224 6.95104Z" fill="white"/>
<g id="Group_4">
<path id="Vector_2" d="M0 0V27H26.9037V0H0ZM18.3199 7.75532C17.0524 10.2255 15.7274 12.6957 14.4024 15.166C14.3448 15.2809 14.3448 15.3383 14.3448 15.4532C14.3448 17.234 14.3448 19.0149 14.3448 20.7383C13.7111 20.7383 13.0774 20.7383 12.4437 20.7383C12.4437 19.0149 12.4437 17.2915 12.4437 15.5681C12.4437 15.3957 12.4437 15.166 12.3285 14.9936C11.1187 12.7532 9.96646 10.5128 8.75666 8.21489C8.46861 7.69787 8.18057 7.18085 7.95013 6.60638C8.06535 6.60638 8.18057 6.54894 8.29579 6.54894C8.87188 6.54894 9.44798 6.54894 10.0241 6.60638C10.1393 6.60638 10.1393 6.66383 10.1969 6.72128C11.061 8.50213 11.9252 10.3404 12.8469 12.1787C13.0198 12.5809 13.1926 12.9255 13.423 13.2702C13.5959 12.983 13.7687 12.6957 13.9415 12.3511C14.9209 10.3979 15.9003 8.50213 16.8796 6.54894C17.5133 6.54894 18.147 6.49149 18.8383 6.60638C18.7231 7.1234 18.4927 7.41064 18.3199 7.75532Z" fill="white"/>
</g>
<path id="Vector_3" d="M111.878 7.52554C112.396 7.3532 112.915 7.23831 113.491 7.12341C113.376 8.10001 113.318 9.0766 113.318 10.1106C114.125 10.1106 114.989 10.1106 115.795 10.1681C115.68 10.5702 115.507 10.9149 115.335 11.2596C114.643 11.2596 113.952 11.2596 113.203 11.2596C113.203 12.1787 113.203 13.0979 113.203 14.017C113.203 14.7064 113.261 15.4532 113.203 16.2C113.203 17.0043 113.203 17.866 113.261 18.6702C113.261 19.0149 113.606 19.2447 113.894 19.3596C114.413 19.4745 114.931 19.417 115.45 19.3021C115.565 19.5894 115.623 19.9341 115.623 20.2213C115.162 20.4511 114.643 20.5085 114.125 20.566C113.433 20.566 112.627 20.4511 112.108 19.9341C111.705 19.5319 111.705 18.9 111.648 18.383C111.59 17.2341 111.648 16.0277 111.59 14.8787C111.59 13.6723 111.59 12.5234 111.59 11.317C111.129 11.317 110.668 11.317 110.265 11.317C110.265 10.9149 110.265 10.5128 110.265 10.1681C110.726 10.1681 111.129 10.1681 111.59 10.1681C111.763 9.24895 111.763 8.3298 111.878 7.52554ZM50.8117 9.82341C51.215 9.82341 51.6759 9.82341 52.0792 9.93831C53.0009 10.2255 53.8074 10.9149 54.2683 11.7192C54.6716 12.466 54.9596 13.2702 55.0172 14.1319C55.0749 15.2809 55.1325 16.4298 54.7292 17.5213C54.3835 18.5553 53.6922 19.4745 52.7129 19.9915C51.7335 20.5085 50.5813 20.566 49.5443 20.2787C48.6226 20.0489 47.816 19.417 47.2399 18.6128C46.6638 17.7511 46.4334 16.717 46.4334 15.6255C46.4334 14.6489 46.3758 13.6149 46.7215 12.6383C47.0095 11.7192 47.6432 10.8575 48.5074 10.283C48.9106 10.0532 49.3139 9.82341 49.7748 9.76597C50.1204 9.82341 50.4661 9.82341 50.8117 9.82341ZM50.0052 11.1447C49.4867 11.2596 48.9682 11.6043 48.6802 12.0638C48.2769 12.7532 48.1617 13.5575 48.1617 14.3617C48.1041 14.9362 48.1617 15.5106 48.2193 16.0851C48.3345 16.7745 48.4497 17.5213 48.7954 18.1532C49.1411 18.8426 49.89 19.1298 50.6389 19.1872C51.3302 19.2447 52.0792 19.0723 52.5976 18.4979C53.0009 18.0383 53.2313 17.5213 53.289 16.8894C53.4042 16.1426 53.4042 15.3958 53.3466 14.7064C53.3466 13.9596 53.2313 13.1553 52.9433 12.4085C52.7705 11.9489 52.4248 11.6043 52.0215 11.3745C51.3878 11.0298 50.6965 10.9723 50.0052 11.1447ZM57.8401 10.1681C58.301 9.99575 58.7619 9.88086 59.2804 9.82341C59.4532 10.283 59.5684 10.7426 59.626 11.2596C59.9717 11.0872 60.2021 10.8 60.5478 10.6277C61.2391 10.1106 62.1032 9.82341 62.9674 9.82341C63.1402 9.82341 63.3706 9.88086 63.5435 9.99575C63.8315 10.1681 64.1196 10.283 64.4076 10.5128C64.6381 10.7426 64.8109 11.0872 64.9837 11.3745C65.387 11.2021 65.675 10.8575 66.0207 10.6277C66.5968 10.2255 67.2881 9.88086 68.0946 9.82341C68.7859 9.76597 69.4773 9.99575 69.9957 10.4553C70.2262 10.6851 70.4566 10.9149 70.5718 11.2021C70.6871 11.4894 70.7447 11.7766 70.7447 12.1213C70.8599 13.7298 70.8023 15.3958 70.8599 17.0043C70.8599 18.0958 70.8599 19.1872 70.8599 20.2787C70.3414 20.2787 69.7653 20.2787 69.2468 20.2787C69.2468 18.6702 69.2468 17.0043 69.2468 15.3958C69.2468 14.3617 69.2468 13.3277 69.1892 12.2362C69.1316 11.8915 68.9588 11.6043 68.6707 11.3745C68.3827 11.2021 67.9794 11.2021 67.5761 11.2021C66.9424 11.2596 66.424 11.6617 65.9055 12.0638C65.675 12.2362 65.4446 12.466 65.2141 12.6383C65.1565 12.6958 65.1565 12.8106 65.1565 12.8681C65.1565 15.3383 65.1565 17.7511 65.1565 20.2213C64.6381 20.2213 64.062 20.2213 63.5435 20.2213V14.4766C63.5435 14.017 63.5435 13.5575 63.5435 13.0979C63.5435 12.6383 63.5435 12.1213 63.3706 11.7192C63.025 11.2596 62.3913 11.1447 61.8728 11.317C61.0663 11.4894 60.3749 12.0064 59.7412 12.5809C59.626 12.6383 59.626 12.7532 59.626 12.8681C59.626 15.3383 59.626 17.8085 59.626 20.2787C59.1651 20.2787 58.7043 20.2787 58.2434 20.2787C58.1858 17.7511 58.2434 15.2234 58.1282 12.6958C58.1282 12.1213 58.1282 11.5468 58.0129 10.9723C57.9553 10.6851 57.8401 10.3979 57.8401 10.1681ZM85.3199 10.1106C85.8384 10.0532 86.3569 9.93831 86.8754 9.82341C86.933 11.2596 86.933 12.6958 86.933 14.0745C86.933 16.1426 86.933 18.1532 86.933 20.2213C86.4145 20.2213 85.8384 20.2213 85.3199 20.2213C85.3199 17.2915 85.3199 14.3617 85.3199 11.4319C85.3199 11.0298 85.2623 10.5128 85.3199 10.1106ZM106.002 9.88086C107.096 10.0532 108.018 11.0872 108.076 12.2362C108.133 13.9021 108.076 15.6255 108.076 17.2915V17.8085C108.076 18.1532 108.076 18.4979 108.191 18.7851C108.249 19.1298 108.594 19.3021 108.825 19.4745C108.594 19.7617 108.421 20.1638 108.133 20.3936C107.96 20.566 107.73 20.3936 107.615 20.2787C107.212 19.9915 106.981 19.5894 106.751 19.1298C106.405 19.3021 106.175 19.6468 105.771 19.8192C105.195 20.2213 104.504 20.3936 103.755 20.3936C103.121 20.3936 102.488 20.2787 101.911 19.9915C100.99 19.4745 100.471 18.4404 100.529 17.4064C100.529 16.4298 101.047 15.4532 101.796 14.8787C102.718 14.1894 103.928 13.9596 105.08 13.8447C105.598 13.7872 106.117 13.7872 106.693 13.7872C106.693 13.2702 106.693 12.7532 106.578 12.2362C106.52 11.8341 106.29 11.3745 105.887 11.1447C105.426 10.9149 104.85 10.8575 104.331 10.9723C103.352 11.0872 102.43 11.4894 101.623 12.0638C101.393 11.7766 101.163 11.4894 100.99 11.1447C100.875 10.9723 101.047 10.8575 101.163 10.8C102.257 10.2255 103.409 9.70852 104.677 9.70852H105.195C105.483 9.82341 105.714 9.82341 106.002 9.88086ZM105.31 14.9936C104.792 15.0511 104.331 15.0511 103.813 15.166C103.237 15.3383 102.718 15.683 102.372 16.2C102.2 16.4872 102.2 16.8319 102.2 17.1766C102.2 17.5213 102.142 17.9234 102.315 18.2681C102.43 18.6128 102.718 18.9575 103.064 19.0723C103.467 19.2447 103.928 19.2447 104.389 19.2447C104.907 19.1872 105.368 18.9 105.771 18.5553C106.117 18.2681 106.463 17.9234 106.463 17.4638C106.52 16.6596 106.52 15.7979 106.52 14.9936C106.117 15.0511 105.714 14.9362 105.31 14.9936ZM122.824 9.93831C123.746 10.1681 124.552 10.7426 125.128 11.4894C125.589 12.1213 125.877 12.8106 125.992 13.5575C126.108 14.2468 126.165 14.9936 126.108 15.7404C126.108 16.9468 125.704 18.0958 125.013 19.0149C124.437 19.7617 123.515 20.2213 122.651 20.3936C121.556 20.566 120.347 20.3936 119.367 19.7043C118.561 19.1298 118.042 18.2106 117.754 17.2341C117.581 16.717 117.581 16.2575 117.524 15.7404C117.524 14.8787 117.524 14.0745 117.639 13.2128C117.869 12.2936 118.33 11.3745 119.022 10.6851C119.54 10.1681 120.231 9.88086 120.923 9.76597C121.614 9.76597 122.248 9.82341 122.824 9.93831ZM121.095 11.1447C120.347 11.2596 119.713 11.8341 119.482 12.5234C119.194 13.2702 119.194 14.0745 119.194 14.8213C119.194 15.5681 119.194 16.3149 119.367 17.0043C119.482 17.5213 119.598 17.9809 119.943 18.383C120.231 18.7851 120.75 19.0149 121.211 19.0723C121.384 19.1298 121.614 19.1298 121.787 19.1298H121.96H122.132C122.536 19.0723 122.881 18.9575 123.227 18.7851C123.63 18.5553 123.918 18.1532 124.091 17.6936C124.264 17.1766 124.322 16.6021 124.379 16.0851C124.379 15.4532 124.437 14.8213 124.379 14.1319C124.322 13.4426 124.264 12.7532 123.918 12.1787C123.63 11.7192 123.227 11.3745 122.709 11.1447C122.19 11.0298 121.614 11.0298 121.095 11.1447ZM128.873 10.2255C129.391 10.1106 129.852 9.93831 130.313 9.82341C130.601 10.3404 130.601 10.9149 130.659 11.4319C130.889 11.2596 131.12 11.0298 131.35 10.8C132.041 10.1106 133.078 9.70852 134.058 9.88086V9.99575C133.827 10.4553 133.712 10.9723 133.482 11.4894C133.482 11.6043 133.309 11.5468 133.251 11.5468C132.848 11.5468 132.329 11.5468 131.984 11.7766C131.58 12.0064 131.292 12.2936 131.004 12.6383C130.716 12.983 130.774 13.4426 130.774 13.8447C130.774 14.4192 130.716 14.9936 130.774 15.5681C130.774 17.1192 130.774 18.7277 130.774 20.2787C130.255 20.2787 129.679 20.2787 129.161 20.2787C129.161 18.5553 129.161 16.7745 129.161 15.0511C129.161 13.8447 129.161 12.6958 129.103 11.4894C129.046 11.0298 128.93 10.6277 128.873 10.2255ZM90.0439 10.2255C90.5048 10.0532 91.0233 9.88086 91.4841 9.88086C91.657 10.3404 91.7722 10.8575 91.8298 11.317C92.2331 11.0298 92.6363 10.6851 93.0396 10.4553C93.9037 9.93831 94.9407 9.59363 95.8625 9.93831C96.4386 10.1106 96.9571 10.4553 97.3027 10.9723C97.5908 11.317 97.6484 11.8341 97.706 12.2362C97.8212 13.8447 97.7636 15.3958 97.7636 17.0043C97.7636 18.0958 97.7636 19.1298 97.7636 20.1638C97.2451 20.1638 96.669 20.1638 96.1505 20.1638C96.1505 18.4404 96.0929 16.6596 96.0929 14.9362C96.0929 13.9596 96.0929 12.983 95.9777 12.0064C95.8049 11.5468 95.4016 11.1447 94.8831 11.1447C94.5374 11.1447 94.1342 11.1447 93.7885 11.2596C93.0396 11.5468 92.3483 12.0064 91.7146 12.5234C91.7146 15.0511 91.7146 17.6362 91.7146 20.1638C91.2537 20.1638 90.7928 20.1638 90.332 20.1638C90.332 18.7277 90.2743 17.2915 90.2743 15.7979C90.2743 14.3043 90.2743 12.8106 90.1591 11.317C90.2743 11.0298 90.1591 10.6277 90.0439 10.2255Z" fill="white"/>
</g>
</g>
</g>
</g>
</g>
</g>
</g>
</g>
<defs>
<clipPath id="clip0_0_1">
<rect width="1440" height="194" fill="white" transform="translate(-1272.98 -119)"/>
</clipPath>
<clipPath id="clip1_0_1">
<rect width="134" height="27" fill="white"/>
</clipPath>
</defs>
</svg>
